<mxfile host="app.diagrams.net" agent="Mozilla/5.0 (Windows NT 10.0; Win64; x64) AppleWebKit/537.36 (KHTML, like Gecko) Chrome/137.0.0.0 Safari/537.36 Edg/137.0.0.0" version="27.1.4">
  <diagram name="第 1 页" id="rZJTn_PIaEoUAYP-J_h2">
    <mxGraphModel dx="1723" dy="2082" grid="1" gridSize="10" guides="1" tooltips="1" connect="1" arrows="1" fold="1" page="1" pageScale="1" pageWidth="827" pageHeight="1169" background="#FFFFFF" math="1" shadow="0">
      <root>
        <mxCell id="0" />
        <mxCell id="1" parent="0" />
        <mxCell id="G9MimPonou3kFe0NSSdk-29" value="" style="rounded=0;whiteSpace=wrap;html=1;fillColor=none;dashed=1;" parent="1" vertex="1">
          <mxGeometry x="439" y="170" width="175" height="253" as="geometry" />
        </mxCell>
        <mxCell id="G9MimPonou3kFe0NSSdk-17" value="" style="rounded=0;whiteSpace=wrap;html=1;fillColor=none;dashed=1;" parent="1" vertex="1">
          <mxGeometry x="270" y="170" width="151" height="253" as="geometry" />
        </mxCell>
        <mxCell id="G9MimPonou3kFe0NSSdk-24" style="edgeStyle=orthogonalEdgeStyle;rounded=0;orthogonalLoop=1;jettySize=auto;html=1;exitX=1;exitY=0.5;exitDx=0;exitDy=0;entryX=0.5;entryY=0;entryDx=0;entryDy=0;" parent="1" source="G9MimPonou3kFe0NSSdk-1" target="ONlaFY43-rq6lhPOw7dl-2" edge="1">
          <mxGeometry relative="1" as="geometry" />
        </mxCell>
        <mxCell id="G9MimPonou3kFe0NSSdk-1" value="&lt;font style=&quot;font-size: 17px;&quot;&gt;Patch Partition&lt;/font&gt;" style="rounded=1;whiteSpace=wrap;html=1;arcSize=28;align=center;flipV=0;direction=south;labelPosition=center;verticalLabelPosition=middle;verticalAlign=middle;fillColor=#f5f5f5;fontColor=#333333;strokeColor=#666666;labelBorderColor=none;fontStyle=1;strokeWidth=2;" parent="1" vertex="1">
          <mxGeometry x="109.5" y="95" width="164" height="52" as="geometry" />
        </mxCell>
        <mxCell id="G9MimPonou3kFe0NSSdk-7" style="edgeStyle=orthogonalEdgeStyle;rounded=0;orthogonalLoop=1;jettySize=auto;html=1;entryX=0;entryY=0.5;entryDx=0;entryDy=0;exitX=0.5;exitY=1;exitDx=0;exitDy=0;" parent="1" source="ONlaFY43-rq6lhPOw7dl-1" target="G9MimPonou3kFe0NSSdk-1" edge="1">
          <mxGeometry relative="1" as="geometry">
            <mxPoint x="176.495" y="-30" as="sourcePoint" />
          </mxGeometry>
        </mxCell>
        <mxCell id="G9MimPonou3kFe0NSSdk-4" value="&lt;b&gt;Input Image&lt;/b&gt;" style="text;html=1;align=center;verticalAlign=middle;resizable=0;points=[];autosize=1;strokeColor=none;fillColor=none;fontSize=17;" parent="1" vertex="1">
          <mxGeometry x="131.5" y="-100" width="120" height="30" as="geometry" />
        </mxCell>
        <mxCell id="G9MimPonou3kFe0NSSdk-8" value="$$ \frac{H}{4} ×\frac{W}{4} ×C_{1} $$" style="text;html=1;align=center;verticalAlign=middle;resizable=0;points=[];autosize=1;strokeColor=none;fillColor=none;fontSize=15;" parent="1" vertex="1">
          <mxGeometry x="56.5" y="390" width="270" height="30" as="geometry" />
        </mxCell>
        <mxCell id="G9MimPonou3kFe0NSSdk-10" value="$$ H×W×3 $$" style="text;html=1;align=center;verticalAlign=middle;resizable=0;points=[];autosize=1;strokeColor=none;fillColor=none;fontSize=15;" parent="1" vertex="1">
          <mxGeometry x="131.5" y="-130" width="120" height="30" as="geometry" />
        </mxCell>
        <mxCell id="G9MimPonou3kFe0NSSdk-31" value="" style="edgeStyle=orthogonalEdgeStyle;rounded=0;orthogonalLoop=1;jettySize=auto;html=1;" parent="1" source="G9MimPonou3kFe0NSSdk-12" target="G9MimPonou3kFe0NSSdk-15" edge="1">
          <mxGeometry relative="1" as="geometry" />
        </mxCell>
        <mxCell id="G9MimPonou3kFe0NSSdk-12" value="&lt;font style=&quot;font-size: 17px;&quot;&gt;&lt;b&gt;DownSmaping&lt;/b&gt;&lt;/font&gt;" style="rounded=1;whiteSpace=wrap;html=1;arcSize=28;align=center;flipV=0;direction=east;labelPosition=center;verticalLabelPosition=middle;verticalAlign=middle;textDirection=vertical-rl;fillColor=#f5f5f5;fontColor=#333333;strokeColor=#666666;strokeWidth=2;fontSize=15;" parent="1" vertex="1">
          <mxGeometry x="450" y="202.5" width="42" height="165" as="geometry" />
        </mxCell>
        <mxCell id="G9MimPonou3kFe0NSSdk-27" style="edgeStyle=orthogonalEdgeStyle;rounded=0;orthogonalLoop=1;jettySize=auto;html=1;exitX=1;exitY=0.5;exitDx=0;exitDy=0;entryX=0;entryY=0.5;entryDx=0;entryDy=0;" parent="1" source="G9MimPonou3kFe0NSSdk-14" target="G9MimPonou3kFe0NSSdk-12" edge="1">
          <mxGeometry relative="1" as="geometry" />
        </mxCell>
        <mxCell id="G9MimPonou3kFe0NSSdk-14" value="&lt;b&gt;&lt;font style=&quot;font-size: 17px;&quot;&gt;AUMamba&lt;br&gt;&lt;/font&gt;&lt;/b&gt;&lt;div&gt;&lt;b&gt;&lt;font style=&quot;font-size: 17px;&quot;&gt;Block&lt;/font&gt;&lt;/b&gt;&lt;/div&gt;" style="rounded=1;whiteSpace=wrap;html=1;arcSize=28;align=center;flipV=0;direction=east;labelPosition=center;verticalLabelPosition=middle;verticalAlign=middle;fillColor=#f5f5f5;fontColor=#333333;strokeColor=#666666;strokeWidth=2;" parent="1" vertex="1">
          <mxGeometry x="307" y="201.25" width="90" height="167.5" as="geometry" />
        </mxCell>
        <mxCell id="ONlaFY43-rq6lhPOw7dl-18" style="edgeStyle=orthogonalEdgeStyle;rounded=0;orthogonalLoop=1;jettySize=auto;html=1;exitX=1;exitY=0.5;exitDx=0;exitDy=0;" parent="1" source="G9MimPonou3kFe0NSSdk-15" target="G9MimPonou3kFe0NSSdk-34" edge="1">
          <mxGeometry relative="1" as="geometry" />
        </mxCell>
        <mxCell id="G9MimPonou3kFe0NSSdk-15" value="&lt;b&gt;&lt;font style=&quot;font-size: 17px;&quot;&gt;AUMamba&lt;br&gt;&lt;/font&gt;&lt;/b&gt;&lt;div&gt;&lt;b&gt;&lt;font style=&quot;font-size: 17px;&quot;&gt;Block&lt;/font&gt;&lt;/b&gt;&lt;/div&gt;" style="rounded=1;whiteSpace=wrap;html=1;arcSize=28;align=center;flipV=0;direction=east;labelPosition=center;verticalLabelPosition=middle;verticalAlign=middle;fillColor=#f5f5f5;fontColor=#333333;strokeColor=#666666;strokeWidth=2;" parent="1" vertex="1">
          <mxGeometry x="520" y="202.5" width="90" height="167" as="geometry" />
        </mxCell>
        <mxCell id="G9MimPonou3kFe0NSSdk-19" value="&lt;b&gt;Stage 1&lt;/b&gt;" style="text;html=1;align=center;verticalAlign=middle;resizable=0;points=[];autosize=1;strokeColor=none;fillColor=none;fontSize=15;" parent="1" vertex="1">
          <mxGeometry x="312" y="170" width="80" height="30" as="geometry" />
        </mxCell>
        <mxCell id="G9MimPonou3kFe0NSSdk-20" value="$$ ×L_{1} $$" style="text;html=1;align=center;verticalAlign=middle;resizable=0;points=[];autosize=1;strokeColor=none;fillColor=none;fontSize=15;" parent="1" vertex="1">
          <mxGeometry x="297" y="367.5" width="110" height="30" as="geometry" />
        </mxCell>
        <mxCell id="G9MimPonou3kFe0NSSdk-25" value="$$ ×L_{2} $$" style="text;html=1;align=center;verticalAlign=middle;resizable=0;points=[];autosize=1;strokeColor=none;fillColor=none;fontSize=15;" parent="1" vertex="1">
          <mxGeometry x="464.5" y="368.75" width="110" height="30" as="geometry" />
        </mxCell>
        <mxCell id="G9MimPonou3kFe0NSSdk-26" value="&lt;b&gt;Stage 2&lt;/b&gt;" style="text;html=1;align=center;verticalAlign=middle;resizable=0;points=[];autosize=1;strokeColor=none;fillColor=none;fontSize=15;" parent="1" vertex="1">
          <mxGeometry x="479.5" y="171.25" width="80" height="30" as="geometry" />
        </mxCell>
        <mxCell id="G9MimPonou3kFe0NSSdk-32" value="" style="rounded=0;whiteSpace=wrap;html=1;fillColor=none;dashed=1;" parent="1" vertex="1">
          <mxGeometry x="631" y="170" width="175" height="253" as="geometry" />
        </mxCell>
        <mxCell id="G9MimPonou3kFe0NSSdk-57" style="edgeStyle=orthogonalEdgeStyle;rounded=0;orthogonalLoop=1;jettySize=auto;html=1;exitX=1;exitY=0.5;exitDx=0;exitDy=0;entryX=0;entryY=0.5;entryDx=0;entryDy=0;" parent="1" source="G9MimPonou3kFe0NSSdk-36" target="G9MimPonou3kFe0NSSdk-53" edge="1">
          <mxGeometry relative="1" as="geometry" />
        </mxCell>
        <mxCell id="G9MimPonou3kFe0NSSdk-39" value="$$ ×L_{3} $$" style="text;html=1;align=center;verticalAlign=middle;resizable=0;points=[];autosize=1;strokeColor=none;fillColor=none;fontSize=15;" parent="1" vertex="1">
          <mxGeometry x="645" y="367.5" width="110" height="30" as="geometry" />
        </mxCell>
        <mxCell id="G9MimPonou3kFe0NSSdk-40" value="&lt;b&gt;Stage 3&lt;/b&gt;" style="text;html=1;align=center;verticalAlign=middle;resizable=0;points=[];autosize=1;strokeColor=none;fillColor=none;fontSize=15;" parent="1" vertex="1">
          <mxGeometry x="660.5" y="171.88" width="80" height="30" as="geometry" />
        </mxCell>
        <mxCell id="G9MimPonou3kFe0NSSdk-63" style="edgeStyle=orthogonalEdgeStyle;rounded=0;orthogonalLoop=1;jettySize=auto;html=1;exitX=1;exitY=0.5;exitDx=0;exitDy=0;" parent="1" source="G9MimPonou3kFe0NSSdk-54" target="G9MimPonou3kFe0NSSdk-64" edge="1">
          <mxGeometry relative="1" as="geometry">
            <mxPoint x="1000" y="450" as="targetPoint" />
          </mxGeometry>
        </mxCell>
        <mxCell id="G9MimPonou3kFe0NSSdk-56" value="&lt;b&gt;Stage 4&lt;/b&gt;" style="text;html=1;align=center;verticalAlign=middle;resizable=0;points=[];autosize=1;strokeColor=none;fillColor=none;fontSize=15;" parent="1" vertex="1">
          <mxGeometry x="845.5" y="171.88" width="80" height="30" as="geometry" />
        </mxCell>
        <mxCell id="G9MimPonou3kFe0NSSdk-58" value="&lt;span style=&quot;color: rgb(0, 0, 0); font-family: Helvetica; font-style: normal; font-variant-ligatures: normal; font-variant-caps: normal; font-weight: 400; letter-spacing: normal; orphans: 2; text-indent: 0px; text-transform: none; widows: 2; word-spacing: 0px; -webkit-text-stroke-width: 0px; white-space: nowrap; background-color: rgb(236, 236, 236); text-decoration-thickness: initial; text-decoration-style: initial; text-decoration-color: initial; float: none; display: inline !important;&quot;&gt;$$ \frac{H}{4} ×\frac{W}{4} ×C_{1} $$&lt;/span&gt;" style="text;whiteSpace=wrap;html=1;align=center;fontSize=15;" parent="1" vertex="1">
          <mxGeometry x="237" y="107" width="230" height="40" as="geometry" />
        </mxCell>
        <mxCell id="G9MimPonou3kFe0NSSdk-60" value="$$ \frac{H}{8} ×\frac{W}{8} ×C_{2} $$" style="text;html=1;align=center;verticalAlign=middle;resizable=0;points=[];autosize=1;strokeColor=none;fillColor=none;fontSize=15;" parent="1" vertex="1">
          <mxGeometry x="384.5" y="130" width="270" height="30" as="geometry" />
        </mxCell>
        <mxCell id="G9MimPonou3kFe0NSSdk-61" value="$$ \frac{H}{16} ×\frac{W}{16} ×C_{3} $$" style="text;html=1;align=center;verticalAlign=middle;resizable=0;points=[];autosize=1;strokeColor=none;fillColor=none;fontSize=15;" parent="1" vertex="1">
          <mxGeometry x="559.5" y="130" width="290" height="30" as="geometry" />
        </mxCell>
        <mxCell id="G9MimPonou3kFe0NSSdk-62" value="$$ \frac{H}{32} ×\frac{W}{32} ×C_{4} $$" style="text;html=1;align=center;verticalAlign=middle;resizable=0;points=[];autosize=1;strokeColor=none;fillColor=none;fontSize=15;" parent="1" vertex="1">
          <mxGeometry x="750" y="130" width="290" height="30" as="geometry" />
        </mxCell>
        <mxCell id="ONlaFY43-rq6lhPOw7dl-52" style="edgeStyle=orthogonalEdgeStyle;rounded=0;orthogonalLoop=1;jettySize=auto;html=1;exitX=0;exitY=0.5;exitDx=0;exitDy=0;" parent="1" edge="1">
          <mxGeometry relative="1" as="geometry">
            <mxPoint x="1041.25" as="targetPoint" />
            <mxPoint x="1043.75" y="91" as="sourcePoint" />
            <Array as="points">
              <mxPoint x="1044" y="92" />
              <mxPoint x="1042" y="92" />
              <mxPoint x="1042" y="46" />
              <mxPoint x="1041" y="46" />
            </Array>
          </mxGeometry>
        </mxCell>
        <mxCell id="G9MimPonou3kFe0NSSdk-64" value="&lt;b&gt;&lt;font style=&quot;font-size: 17px;&quot;&gt;Classifier&lt;/font&gt;&lt;/b&gt;" style="rounded=1;whiteSpace=wrap;html=1;arcSize=50;align=center;flipV=0;direction=south;labelPosition=center;verticalLabelPosition=middle;verticalAlign=middle;textDirection=ltr;fillColor=#f5f5f5;fontColor=#333333;strokeColor=#666666;strokeWidth=2;" parent="1" vertex="1">
          <mxGeometry x="960" y="91" width="165" height="60" as="geometry" />
        </mxCell>
        <mxCell id="ONlaFY43-rq6lhPOw7dl-1" value="" style="shape=image;verticalLabelPosition=bottom;labelBackgroundColor=default;verticalAlign=top;aspect=fixed;imageAspect=0;image=data:image/jpeg,/9j/4AAQSkZJRgABAQAAAQABAAD/2wBDAAIBAQEBAQIBAQECAgICAgQDAgICAgUEBAMEBgUGBgYFBgYGBwkIBgcJBwYGCAsICQoKCgoKBggLDAsKDAkKCgr/2wBDAQICAgICAgUDAwUKBwYHCgoKCgoKCgoKCgoKCgoKCgoKCgoKCgoKCgoKCgoKCgoKCgoKCgoKCgoKCgoKCgoKCgr/wAARCAEAAQADASIAAhEBAxEB/8QAHwAAAQUBAQEBAQEAAAAAAAAAAAECAwQFBgcICQoL/8QAtRAAAgEDAwIEAwUFBAQAAAF9AQIDAAQRBRIhMUEGE1FhByJxFDKBkaEII0KxwRVS0fAkM2JyggkKFhcYGRolJicoKSo0NTY3ODk6Q0RFRkdISUpTVFVWV1hZWmNkZWZnaGlqc3R1dnd4eXqDhIWGh4iJipKTlJWWl5iZmqKjpKWmp6ipqrKztLW2t7i5usLDxMXGx8jJytLT1NXW19jZ2uHi4+Tl5ufo6erx8vP09fb3+Pn6/8QAHwEAAwEBAQEBAQEBAQAAAAAAAAECAwQFBgcICQoL/8QAtREAAgECBAQDBAcFBAQAAQJ3AAECAxEEBSExBhJBUQdhcRMiMoEIFEKRobHBCSMzUvAVYnLRChYkNOEl8RcYGRomJygpKjU2Nzg5OkNERUZHSElKU1RVVldYWVpjZGVmZ2hpanN0dXZ3eHl6goOEhYaHiImKkpOUlZaXmJmaoqOkpaanqKmqsrO0tba3uLm6wsPExcbHyMnK0tPU1dbX2Nna4uPk5ebn6Onq8vP09fb3+Pn6/9oADAMBAAIRAxEAPwD8bywz04xxQA5zkGlHJwR+JpwORt/WvaMxAAT/AI1Q16/FnZMiA7nGFP8AOtAgnjg+/tWJrk3m36xhQVTk+nNc2KqOnR06m1CPPUMUr5aIWyXYdAelKk5n3RJ1wefUU+W0MjtJkHLYyPT1pbLT2juduSDkDkV42ltTvs27I2/BHhi71e9dYUOFQlmPbg/nXuNr4M0rT9FYyXtpbXUN7BLEbwrt8swMFJzyQXIXI/un0pvwA+HQgjhvpwoEzqquU3fMAHC9Mn7rA+3cGvXdJ+HGo2lysiGSMJ8kE5uI9sUJ+9tUoSDz6+h46V8xmOYx9ry32PrsryuTo89tzx7T/hNB4/uYrvwlCmnytaqk0tjcSMuV+9uzGobuNyMeevHNdjZfsf6NryiHxHqc7xrjcqtvlbgDLSkcewHTA5xkV7TpugwWFqsdoWYgfPJ19MBccD16Y5rd0bQPtUfl7dpYg/KcEr169smvBrZziF/Ddl+J9JQyHCtfvY3f4HlvgT9jj4NaXGJn8IJeseEfUW3luv8ADwD064/+v6No/wCz98P9GgD6J4VsbNXJDNb2iREDqCMDB9O5rvdN8PK1kvl25RcbY84yO3QcD2+lakVoIbdoLZfMPIj7EADgA/j+lePVzHF15+9Uf3s9vD5VgaEPdpr7jin+HOgWhFpYWwjZlAYtHnIH1HPOeM45xxVO78OJpN1DZW1nI/nOVV1QFIwF788dP1FehRWbFiZpJo2wQH35OT2G0j/P4UHTp40kNrdM3zEhQDgj1Ix39Pp71nTqy6u52PDw+zFI4WbwxbOSwsgTIMZCge/pWD4l+GGk6zA5/s6PzzyGCDg4HH6V6sNEmAVkm/d7sAFAPz71Q1HRJozuAVi64GRjHHvXRTryi7pmdXCQmtUfLvi79mW6kuvtmnwA3Kkk4K/OD6kdDnJ59Tniqvhb9lXWWuRLdNAISSTG1tuyCOgJOVI+g/Cvp+x0OV3L3VuSAd2dn1479/btWhBomAWhsSARlnVGAY4/vY/nXo/2viYx5Uzy3kOElU57HlXhv4TaZoGmQ2tvAEMMYQKh7YGctjnp6etWX8KgXJWS3JUnAUD5QT3w3H44FelvoakrINOCAqcFwzEgfh0/z3qL+wZEQzXlmxXJYB/XGeOeeK4niZylds7fqdOMVFI8k174SeEtXhe21KwyrjMqPGoOCME5UAjPf8u9cbL8ANL0a1bT/C93cW0G/KWxm3hRnPCtkHk5zwc98cV9C3+hA2oMCff+6SRjIGevGemfSuV8Q6e4l3TMOCrFgAc5J47jGP59K0pY3EQ0UtDlrZbhpu/LqeH2Hwmu9J1NLmC6VYvODzI8TDay4YfxYCnaO3TH0rpdSXUGHk3FgrAhd7l85AGCQSByRj+ddlfWb+erxw7c/KVYEZwff+vb6Vl6hay29sYkUduuODjp9K6Xip1ZJyONYOFGLUEeVePLf+xdLurPWNMlurO5hY20tpBvNuTn5GA5x6MBjGQQMZPzr488M3XmjUxbFYpifLcgjdzxjPJHv3r6213QbjVYf7N3KYA2Zd65ZQORsIIxg4IPUY+leafEf4YibSLmR9SllVIfLgSeJdyAdPmAG7sMnkcc8mvdy7GwpNJ9T5vNcvnVjdLRHzJFE0MhtnDKCxBKj8+O9NXEbqrLkoxIBOO1amr2UlpeyxTIUkQnHGPcf1rLL+buBA3AZBzwR3r6qLurnxc42djb8PapHcAwSyjdjKDFaoKsuUI69a5G0k8i4imC5AIJHqM9K6yDDANkD3HevZwlbnhZ7o4K0OWVx3tt/KmkAjBPfge1PYKcjPU96bj+DHfp6V1mAqgLyDn3NKBngHp6UgViMD07mgc9OeO3NACnG0lj27msO+QXWpuB0VgWIHati7mWK1ZnOOD9K51JGlvCYjgvwADxjPP6V52PloonXhluxk0eR5qDCs4C/gK2fBmjXGtarFtT/looJ5O3v/n6VlzP9slSCGIIiuCOMYzk/wCfwr1L4KeFW1mGaWGMGTcwgJAPzYyGOeP/ANVeJiaqpUmz1sHSdeuon0D8K/DVm/hy3tGi/dKMqQ2HyBnO4EEdP5e9ej6Lp0ZVIJVJiQEqGcsW6nknnk1zvw0sVttCgMgAVxnDDHGa7fTLOWSQRLtGQCxZcDjv7d6/OMZVlKqz9WwFFQoxsuhLY6U9yxM0RKl+ijbjk+/POPyrp9B0NF2hEVItwZmZeBg9f896oWEU/nLADtXODIynH19vr/Out02ykWD93KpCk4IbgkgHjt1z6/4+RUm+p7FOMUzR05bWzkWEQsyqvy4YdcjGfboePStU6ZFPEYDICpUfN12j35z9fSs/TYPlMLxhCTjBB547f5/wrTt1WJBFNbq5KgqyEkHB7kH3rnVnI6dWitHp100kc8MZJXgsXHUdvYZ7+n14k1iz1FLIXTW7yBiCwhwcnJ3Eg49+RznnvmpDdtZzlbW4MStyFDhguB1zgfyFSyXVwYfIluskn90Qg6Zwc4x+ldC0J7GfAlrcYdQjLLkhh357EDH1/Gku7ONC0DxrsPoT274xj+dWLQxW8P8AZ0EwVgSwUjAzzzx161I8UqSCfLnkA8d+mDiq2ZTfMM0zR7LaMtvPdg2B9f1pbywdnK2oJEeSwVOvr/WrSWl7FeJdnUI0jU7ZITGMuD0we39cU+8t5GP7vbg8biCQPrj3/wA+qW9ypWtYx0s1uBsiVwEBD7jjJ+vT9anfSRDHH8q7lXA3OCzcZ9TxgirkZkkUTbdu04UeUcD8O47njn2qvctZKXaSOeTCEjeQVT0xz1z6frV3vsYt6anOapayWoYSW3yoAQd3LAng/r/PHvy/iKztGRgy/eBwVA498/XNdbfTPOm6OF1C5dwFHzKemex/pyK5/W7PzwLmJDF8uH3AgdcA+tax3MZnG3lvG6MYpA207lQ9QSeoA5yP8ayNQMTQh24DKG+YdTjHFbeoWsreZO8IQk4Y4yD7f561k6oVlZJTJna2SH559M9f/wBfPSuqBwTtfQ5+ewRAzOgCtyv06GuX8X6d5tlPGIxh48HPvwMV1t2haNpIwdpbKhVx/k//AFqxL6xMsLIwU8EApnr/AJ/zxXbRk07nnYiCcGj5F+KGlxafqs0SxYIciRic9/yx1FcGQpZljUDd2zn9a9i+NejA6hfXEUZG8kOmOnJP5cV5E0GFbDDIzxj2/wDr199g6nPRR+Z4+k6eIaGJCR5YwRnBHFdJoNzHd2anaNyjDAnPNc7I48oAtwBxk9q1PC9xClzJAWK7xkc8Zr1MJU5Ktu55leN4ehtnqTuGKG4IP86OTnjPtStnqoz617BwCZGfu80EMen0xTi2Tnr7UZATBFFgMvxDJNFYMqggscfQVj2yyvd4jPzAjBHv/wDrrY8TPi1SHJ+ZuDms6yM6OJ4gMhsnPXsa8fGSbrHfQX7scVUyBxJgF8YU8n0+o4xXuHwOkji0yLTrWNTdXjCGIYLDnq5AI4UHcemcAV4lKkJuUQE7VBzgdz2z+v419D/sy6Jby3AuCMAoQsjnGWx0/INn6V4WaSUMK2z3sni54uKR9F+G7a3tLKFVVSEQBV24Ixjp+ma6KyjKJvljLHByQc547e3NYGjyxo5ZW2qXIC468/8A1/1rd0+6aXaTMdufmZV6k+nv2r86qpt3P1Si4xSsb2hW32ucy3CssKxqdgxg+3+feu08O2SW9olnETjB+aSQH069cn65/nXnGueLE0Cy8ve6xs2xUUHJc54PPsxPORjv0OdafHXwxpEHnLrqtlisKpgGWQ9ctnPBJ6Z79e+UcBWrx91FVMxoYaXLJntJlhjP2Y6jGXjfJLMEzx6gAHg9cdx05qayR4xuWWMpCWYMjAnnk9Dx1/H0rxrw58bbPXbqHdeW8ivKVaTzNwXuF2kA/iQOo5r0fR9dtph5jTwsWwUMYySAM4OGbr/npU1Mvq0d0XRzOjX0izViN9eaibeLATBd3wQCT2zgZ/yPWta2REAiCqdmFIKgZ54yD/n2qjZX1nBdLPcygP8AcyE4OeuT3x/hVg31n5bRNcliOTzkk9cYx61zuEk9j01Ug1dEn2eLzHeP1xtKnrn0HbNT2lsjt5kkbHOeQMBu3Hvn8aYrRTAFhwykAbOh5Bx+tael20C2fkJFwMH72fzz6UnoEbtkL6eLxFd5WBVxgscA46VTvNMlhnKWs6Mwc7lJwPw9/wDH2rcli8mHMmwJjaMdh26fSs1Wtc+ZHAGBBBw2MemcHJ6+9EW7jmZq2jC6ddrBVXlmfAP4dxn+uKqXFvKNwaYKofA2njr9f6U+XVo49ea2+zIsa4wxGVLYye3Bzz36VIJdHv5SGiZyp5UdCOv3cg89+elaezm3oZSnCK1KV3o7XNtJuBw/zE7eAMnr+JP61g3UMLW7RRqu1jtPyjofTjIHArc1fWLDTLVCNWEWWIFuXwTjuM9Oufoa4C/+JGnxas1ve6qsUQYqXeMgJng9fcfofSuungq0ldHlVswoQna5S1yyiEphRGD9uQQO3X0/z6Vy2s2ckSlEHIJCkLwSfXPrXUar448N6gkk5cSNGhB8tgSCCffPp71zEl9Z6vHJcxXaNly0ZjORg9Oe3pXQqFSnujn+s0qvwsyJ4QkZaRcnoGPcY6VlahBH5e6HhSo+U9xn/wDVW3fPBFCxbDoW+YN1H4Dp269qxLkkysWy20HIH8XT/P8AkVvAxqyTVjwn9obTnskkvrdsiZWypUddpwc/mPr9K+e7hRJKwIGSxGQfevpP9o2Nru3lRA2xVO3aOhx1+n+NfOd2qfbWO4/ITj1Jz/n8q+1yl3wyufnmdxUcW7FGddhMe5SB3B6Y/wD1Va0Ntt6o27gy9hVaWOPa8inAJIHHX/OaseH5WOsIqgFfLI5r2qP8WJ4U/gZ0seNgJfPvTj0zj6e9IAq5BHHXAoOByD19a93oeb1HBeckfXvQDyQRjA5oXk5f8cUvBG326GmKxieIJVW4DRgOEj6g9M/1zWck212cNjPv+n+fWrvipZY2LBvvbTgDkdazdyt95skHBwOleHiNa8rno0/gRPbNMbpI2/hPIHr/APrzX1T+y9os0fhpb+CPMnnBcP0Iycn1xyfb2r5c0e0nvdXht4UyXlXr2z7+tfaX7PugXeheHxaX0WIggkikAyTyeD6dM49zXzmfVVDC27n1PDNF1MZzPZHdPI1oA7TbSfvbjwBkAdfTB/GtFfEGm6Dpb6tqd9HBbQggGZ9uWAHAPYAYye3OK4/x9400/wAOWstzfSFEUlyxTC5A7Z6k9B9fxr548Z/GDxV8TtRNraNP5CbkhtIFd40TGMvt7kk5PXpxivm8HltTFq70Xc+qx+bU8E+Vavsdv+0J+07B4rc+H/CMFw1tCGiO1TlkOMvgHHzcAD0/TwnVfiBrJmJhv5UKAIArdPpjpgfT8a7ZPgd4svLAXEkrpBcAbp1tzyxzxjbuAx16+vAxVu6/Y/8AEl5pD6noGqWt0YgGkP2gbSvbJJBUc9wDX1WFp4LCwUInxmMqZhjKjnJO5xPh74y+LfD1wi2moyJGhBCLKUIHsR0z/wDrBr2LwD+3TqenXENtqGjFYwp3mWcyKScAfKqrj8M/TsfFde+Hni7wsW0jW9IniKOQHZNwXH8SuOGHrWVGLmxnVJox98hgi4Ugc46/5x1rqnh8NXWqTOOnisZhno2j9CvAX7Tvhjx3p6LYXkDMEBkjifJAz82MEtx6ZOSegPFdn4X+LFvqdx9gFyjNE/7w7iffBI6hgdwr84vAfiPUPDmvQ3sUnlhmy0iZ5A5IPb0r3z4b/Fm5HiaOS7u90bJkSSN8zAHIAYcBh6nO7HrXgY3JaSu4H1OX8Q1nZTZ94aBfI0J8y4BWWIfuwQxHXv8AgRjtWnb3nk30NvZxyOo5yAMD0yevevD/AAD8V5WnjtpZPPjRxHGNmBkIGJBHqM889+a9q0iSSG1h1AiRPnXdkdB9O3XOOOtfI4nCyoysz7fB46FeN7mrrK/6KZXlUDG+TPbjivLvHPxPtfD0jyyXbNG7DMkZHy/7XJzgd/bPpXY+P/GbaFopk2zhBht/kkpGCeuO47Eex56V8k/GvxPrUmtSnTkVkmDP9/ILDo2fX7o98dzXRl2B9vLU5c0zJ4aGh3Wq/tB2NveNdpdcq7RSx+YQUwOD/uksMf5FcZ40/b60XwE6TWOmNqN6mX8toyI95JwvXOFGBnHO3PvXiXirxNf+cRYq6y4cSozcEYBX265xz2H1rzLxObVpxLCd+LdJJNwyNxUEr+GccH+XH1+FynDJpyR8LjM9xc01FnqvjH/goZ8Y/EGrXF9DYafZwTKR9nSJ5AeegLNkda8/1r9o74l6/O2ou8qrL/risxZnYjJOWBHPfrmuHkNxqO0eSAo+d8Lx/vD9B+FamleE/FXiu/TStH0ie4klbH7tduecZ/p656168cNhqS0ikeFLFYuq9ZNm/ovxe8SXExuINSkLgBipY5BHJIz/AJ4HXpXqnwm+NoNwz390ixu2LpTnAJ/iB4I5wOmP6eTXnwD+I+izm4NtC+V3NAXzIegxtTPPOcegJpmn+F/E1oq3EUalkBEkaSLuU5wOD97tjqRWFfD4bEQa0OrDYrFYeonrofXkGq2Ws2IubW7SQFG5j5zz6j05H4Gse4upWL4woRMkY5Ppx+f+c14V8PvjNrHgd1/tDzZICuJIXByG6MwBI9Oe3PrmvW9C8UaT4utBq+k3WFEgOEx0IIAOfc4PuBXzVfA1MNJ327n1uFzKnio22l2OR+NEBm0a8EMu4FeGIxwQNv8AX86+Z7xXiIMyAEEtg9fT+tfWXjPTEvtKcW0RbAbevqQOMfiO/r7V8reOtNuNH1Sa3ZJNmcozD7ykA/Tt+le3k1RODgfP8QUnGamZBMYtcM+WVs4IyRgcf59qbo0zQ6lC+0gE4I9M1G6gxmRWK8A4Ixj34+lSaSrJfQBRwZB1719BT0qI+XkrxZ1igKuMcemKNvIBP1xxSqDGoXGRjjJoY9NpH51755oBDkEgfSpbeCS5kEEMbOzkBVVck59qYuS3GfbPNd78CdNZdWv/ABYLCK4OlW6GOOUZUu5wPxwGrmxmJWEw0qzV7fnsjsy/ByzDGQw8Xbme/bu/uPPPH3g3xBoVjHqGraXJAjkIpcdyCR9OlcpE6xDzApwCcDH1x+tfXvxg8G6f40+FOpXy6bHbXccDXLW3mZVdo+8Pw4479a+QrhFJCIASQOM/5/ya+awePnmClOatJPWx7+cZVDKasYQlzRaum9zuf2evCk/i/wAfW9vsJWJxIyjtgg9RX3DoOjR6VoO+RD+7RicHqwH6d/wNfOn7B3hE3t/dapNFkJtVdo9+n1NfVOtWJtLaSJVCv5Qww6dew/KvlM+xHPjfZLZH1vDGFVLL3Ve7Pnj49afrPjrxXa+FtHRwiu0l48A5TptHqeDyAT9B37P4NfAuKzsViXTlhGAwiEx3P6eYpCg8j1z7VZ8H+Cb+88Qah4qvrG2kWUqsCX8Yd1QcDkjao6HoTyMmuxi1HTvDsJY2cAdUyu1UG08egxnHf2pvEyhRVKn0/MqlgY18Q61Tr+R02kaB4U8PW2LrRbRbl1RneUsWUrkcMefyxTX8a+HrKR/s0EKq5bKoAo5HOMHjJ59ea8W+Inxune6/sbRt81xnkK52gE45PpXIjT/HPiJDfX19cqnJyrmNAACTzwegPftUww9Sa5pytc6qmIw9H3Kcb2PavF2k/DzxZZGO9srfzRysqDBH0PbvyPWvJ9f+CHgUzPbrCjo/zBl/g7/lzmsHVdPGj3o0+/8AG3k3GWBiOpnKlTz/ABc1jvq3jvTJjfaJq76lDHyYZTuyoz0YfQ9fSu2jRrU17k2eXia+Eqv34L5Cav8AAO70icSaRKHt95wcZZM/w/T/ABxyM0/wvoGq2F4YzmKS2mHlk/wrgkdOc9OPY+tdt8PvixYeK7f7PcRC3uo/lkhlGGDDqD+VdDDZaPf3wnMKlkJbHY85Pf1rZ42tC8aiOX+zaE0p0Wd/8I7W98TzWGpabaMkcbJM0iQYUswHyhc5Jzg9Mgj2NfTmkRXd3ZRWhiMAKnzCQN2AeCOx5GcCvH/2efEek6JdRWEFlyxyELDaD7gcH+f0ya+ibqCK40rz5owHAXESkKCGGCQF5Ppz3z6V8vmNaM57WPq8soVKUNPmcr4pt0vtPcPKvkKgWWKRCeMdvyJ7++a+TfjjpMuheKzpWr2aixupZGtr1GOC4OCDxxwSPTgHtmvtu6k0bS9NnuvsSjMIV1E7DPfkdzXzP8evEul6xq/kS28UscZDRGRs7W9j174rTLK3s57GGZ0PbRvfU+T/ABD4Q1STVSIIzLbtGVVCg2u2FVsjv9wevQ1R039nzVNVRpvEl+kEMsm7bH94qM8Adhg9P/rAew6lq1teXRjSCMuOIwi/KuO/1rkfG3ju30hRZWzhpiQAGPAPsB/Kvoo42vJqMNz57+zMPBc9R6CeHPgx8M4HS2bTx8uFZ5H++PTHT+vFereEtM+HvhCzK6JplpbNgKbhQA5A9COf614Ja2XirWN11e6jLAjc7Q23/wDVWlZ+G9Sku10y31+5W6Jykf20knp2J68jjvmsasKtT4ps6aDw1L4aa+dj6M0nUvBywGH+z7TLDJkfBdiR94HHUVR174eeAdfWRP7At5JpI1AndAc9znkZz0PQdMD18C1+w+LPg6Tz21WZ1RQzLIokXGCeo5xj3q94G/aP1GK7j0jxBG9vMTtRg2UfHoT169Kx9hiIx5oSudMa+CqS5Zxsb/i34A6FM88MVg7wiXKMY2+VmJzyCBwe+CPrxXAaD4TvfhN8SW0JJJFstRAjljxlQ/8ACw4GOg4xyCfSvaoPGsfiMRjznyOcrKeh9eeea5H4g6NJPaFbOHy5IJFlhkMwfaw+b+Jtx5AHA7VpSxFSScJvRmGJwdKDVSno0PeFpEWCSMyBgQcN14zzx0r51/aL8MSaJfwSoMLI7lUIA25bdjjrySfbpX0x4dtLi6/0mW5jk82LI2RFArbsEbT39++K8k/a38OKNIOoRgnYyqrEcjkj+Z/lTy2p7PGqPcyzekquXOXY+bNxKkM3G0EZ7Y4rb+HfhXU/GXiq10jTYSXJLsxHCqB1P8vqaxpoXY4AOTjaAOvPSvpH9nvwTb/Djwl/wkV9B5ur6mm4RsOIYweEPcdNx/AcYr6TF4mWFpc0Pi6Hy2U5eswxapz+Fav07erOE8afDHxN4KiW61O0byHbHmqvAPoa5wgkZHHqAa9o1jVdd8bf2x4e8RX7yFtPkmt4cDYhXlcAdOQK8ZwOTx7cV62UY2rjKL9rbmjvbzObP8spZdiV7G/JJaX3VtxI8k4z+FetfBJG074Wa/rjIQsurWkIYjqVV2Iz/wACFeTLhvU/hXqPw2uC3wN1+2iYb7XV4LhlHXBQjP0+Woz+/wDZr9Y/mjfhLl/tuDfRS/8ASWe1WvhPUfGVlc6DaXBSWTTZVLKf7yEY/WviXxDpN5o3iO90y/QJPbXUsTpnBVwxBBxiv0L+BLR6is2tQ2geO4hhRNvHBQE/zB/DjPSvin9prwzJ4V+PXiW1mlllSXUPPSSYAE+YNzfkSy/hXyGS128VVpP+u/5n2HGGFX1ShiF6P57fkfRP7BOlQWHglp325nuGKuFOSB9eg5/wr3zxIkc2kyNbANIBku/0wM+2TXiv7IMLWvwvsAmwKSZCc8k5H1yOtezxzIZYrSWQq8+/adnOQMn+nvyK+bzOV8xnLzPayimo5RTj5HLQ6cmkadJqbAq7pl1JDYJwTtI7V558QvEF/cI0FpMELA/P2Hvk/hXsWs6Mw0lvNgcSMucY+77HP5V4/wCPfA+vazuighIRjyQMAgn/ADwK2wlWEp3kycRTqU6Voo8i174g+HPAEhQQNf6lIeI0GcvnuR3rY8NfB79pb9oHQrnXNTku9M0Wygee2sbYlSx27unUZ28n2qtL8LH8L35vdO0ISzq/mpLOMsNvK/N06kDA+vtXtnwd/a98WfDeyfS9Z+F/9pQeUIv3E7DGQRnBypOD+RFfTYeph1aUdX3f9aHyOMo4yacW7Lt/mz4x8QfDFdM+Edt8Vj8Q9Mlu5/EtzpMvhVLk/wBoWyRQwyrduhPMMhlaNSB96FwcZGbvhLTbzRfBGg+MvCnxTjk1zVvEN5p914VWF/NsoYorRobpmJw6TNPMgXAK/ZWOTuAHf/G74V6L438VT+Kfh94c1DSjf3LST2N2nmRoxOco6gZyd3GMccE54y/AfgLUvhjrI8S3ljaXN7bMRAt4cRxP/e2g5Y85HNeq8Rh2rNpnixweKUk4pjNSHiTT/FcR1K0S21GNwtw8Jwsw7HjAz+XX1r13wct9JbR30sZVlOJQQflPevNfsPjXxhrsmqNHazu0hLr5Z2rzjoTnvXq3hKXVrWy/smeFRJKQZpCcluOpPf6/414mOlC2h9LlsKiep6f8O9Qm07VIGVSxPzKw7e/1r6Z0LxXDcaHbtPvZlGWYcE18+/DPw/8A2vdx3EQJWNdpYLxnPYY617FH4dmsbNEUPu8pSTnAxnH418JmFSMqtkfpGVYaao8zQvxB8XwjRpLW3tXj81SWJJBOf068180fEG5uZjNOjAk/KMnPf3r6C8W6U0+kF3L/AC54cY7evevA/H9rc23npECrLLvG4/lzXflk03ZnnZxQcdUjyHV9X1zRrqeaRMgZyeuPf0rI8J36a7r8NjY6RJq+t38yw6fZheEZjgA/n7V33iPV9S1bR5LdNIimkcjzvMwuQOoLcY4B7+uK4W28Y6/4X8Zwa9oGm2em/ZZf9HtknZ1ijDFlRWbJByzZJJJLdAev1mG5JLU+KxSqbJnd/Hf9jr42+E7vxjo3xH/aC8G+FX8N+DbzxBa28l68MOvNbzQQtp1m8io0l0wmZ1TblhCwx3Hy78OPDHh/xvY+L9R8Y/Fz+wLvQ/DL6jodvdWrTf25eC5t4vsKsHHlMYpZpg5DD/R9uPm3L9iftJftM+Pv2wPhbpvgH4weANN1C+0mzhh0TXbW/cXNskaBFUtKzbk2gDbnAAAGMV8xaV+zv4kN75mqWt01orqoaxgErtlgMDJAHByOv0649mjiMLCKSsfNV8NjXK803/X4Fb4eaP8AGk+DZPFnh/VLySw+1+S0UhZo5SMcc9PvVfsvGGleJlNr4is1tbpZMSLjgn2z0r2pvifrug/CqL4Y/Cz4NiysLPi5u76TzJS5blm4ABLYyPUivLLHwpNrc8UuseHonKudyquJDySRuHp+lc1erQbbf3o68JRxMY2/A6/4fapqGnCOOK9aaMgBTu5x7/5HSvVNJlNxYPLdNLiToqjHORgZAz2FedeFPAl5aXAXSLGaO2PIR1y3GM4IIz3HPNeq+H9OFrEqiNyQo25PGP8APp6189jJwUrpn1WDhUcOWQ3SoItNVPtEcjMWIMhAORxycH29K8r/AGrEd/BFy+Dt80Phl5Xjp75z/npXsF00xfy/JI3A4Qry3T2xn3z6V4V+2BqFza6HFaLCpS4Vt7g4GVK5+vU/n7VGAvPGwt3DMkoZdUv2Pn74c6FbeJPHNjYXk0cMJn3z+acLsX5iDz3A/wAM19ieMvBDeF/DlhPdQbZldPtEirtyCOOnbpxkjtXyN8FYpJ/irotqsPn+bfqpiyOc9BnIx25yMeo6191fGC8j8SeEornT3do0i8zG0AFA2VJ5J+6o7nucmvZzmco1aauefwlThKnUk1qjxPZD/wALL1IwRlVi0TcVbHTaxOenXFeHvh3LDjPbFez6NcG41Txn4rWQtFb6c0Ksx43LHjGf97j8K8ZK4JI5z3r3OHY29q/8P5Hj8YVFKVFf4n97QRqOdo+lelfs8XUOoXWteCLhVKanpjsnb54+R+havNVdiBxXWfBHVU0n4paRczjEclz5L9hhwV/rXrZpR9tl1SPk381qvyPAyTEPC5tRqdOZJ+j0f4M+tPgqJ/AfwQ0uXUp2+0TBsNu+8Nx2+/C4H4V8e/tZakmrfGa/vpJwzOQZCOmRwAPbAHI9a+nPiD4ju9K+HOjiIfu7WWWFuDlSH/wxXy7+0VNZaxr1prsMu57lCsjBMbSuBggjrxn8a+ByWH+0yqPd3/M/SuLZ3y6FNbRt+Vj6R/Y/1UXPwztoAw/dDCjHfr6cAV7v4eaCRRNIVXaNx3N0GOc+vT+vrXy9+xfre/wYulJIC8UzZGOMZB59e1fR3h6+eOdyv8DFQzDPTrx3Hv6mvCzek44yp6noZHV9pl9JeR093p66kwBUFABgZ5YZ747f1rN13wRcTSGURpGiA5YLuGOvX6YrqfCNql7Isly4MT4LMg68evoePzFdd/wj9vd2Txyxq21QMMf4hzkk9+Rn6V4PtXTdmz6H6u5bI8DvvA6eb+/0h5NxOCFz09fT2qXRPB2g6TqcV5qXhWCURyF/LnhBXPv8w6HH5V7pL4d0e5kCCKMHncVAw2emfrz0x+lYOs+HfD43Lc24Zhna5XLL+Qz7D+td+Hxhy1sBzrVHgvxfm0Gdza6PYuITGRDFEuNo69SAV7n7xHPFeMa94R1LUpCTa+QjckyZLkfjX1f4j8BTXhK6TbRhATh3jwOh5I9cEmsWy+DegRyjU9WcXODxEigIMdenvXq08zo0o33PJq5TVqPlWiPBPAPwf8R6rcrDpls8cI+Z5JEwBjP4mvZPC3wmi00RQNmecgb3fkjHFdvb26wxCw0PRlkUHpEvy8dOT6Vv6Xox0i3Go38OHbGwdcf59a83GZrVrO23kepl+T0aDva77kvw/wDDFvoCQxbgEBzJwBk56Y/Su48Q3H/EsRoNwIUBongOT1z/ADrm9CupL6+iFwoijj5UKBlj7eg/wrpdZuzbkJdMruqB9wfgjH3s14FSTlVTe59bhIp02ktjz7xcviW51SCCNIzp5ibzXLYdSPbOMVxnjPwU15aS3CRDIU43DORn9f8A61eh+MtWAiicQ7ndcEkD5R16/iDWVLPbXUCwum3I53e9enh6jik0eTjaUJTcXqfPniD4bXbK82kzlZTyUI44/wA/rXl/ijwDcG6KzWzwy7zlGGMD6DrX094n0qfTJ3nt4d6j04Gfrj3rE1bw74c8T22y6tVVgT82wbh9f8mvocLmEoLXVHyOLy2M5XWjPDvCOgarEqwSShlXGMn5fxJ6cV614BQaD5d3qHh0XAiKmMujOrNnjKhuACM9KS1+FVzbzq9hKrxr91cYJ5zj/OK7Xwxos9lJ5lxHLESh3hhuIGOf55/Ota2Kpz2ZnRwsoK0kcp4vtdP8RNJNa6AsBnZjJHGdoYsQxwNi4+Yev6jnF0L4W3CuWm05IgWwF253AjGa+hdO0fQrrT1uTOu4DBCoTxzjgd89/fn1rRtvC2mSTj92u6RRsZsjbz6A/h7CvPnjXFWO2OA5ndI8W8KeANRsSxexZNhAiCgbpAccfhknj0q1d6WLWb7KoVhyVbnGPc/TmvX7/wAHxWLRXrqAwhdUmUbTk8Hjjtj6GvL/ABYzw6hthtmYIrEcffwOQO2fauRVvayvc6JYb2S2Od1JNkSS+Wu6IFXB5AP8RAHvXzv+1lFHNpqqshLhWbbgcKSPw6gfj9K9x8R37zXstpCp2FVAy/bJrwb9rG+tYtHXL7p3XY2DyAPX6cj8a93KYNYqJ8/nU19RmmeX/s86dDJ41W+uplUW6lmZse3PTg+n4jvX1r4f1+z8T+CtYsQoZ7LT3mSbcDhQoBHuMV8jfCmWXTn/ALSWdgzoyElRhxn8z+PtX0J8PLubRfhnr2pOSFk01raHLclm4A/SvVzaKlO/oc/DLcMK1buzhL+ZvDX7Pkrlm+0azqCoSTgkDLt9R2/GvKsE9/fGK9I+PM8elWWgeDYGwLWw8+YD+8/TP4CvN2YDBPPvX1uR0uTAqfWTb/RfkfFcTV3VzRw6QSj+r/FiIc5zzxxirOl30mm6jBfwPtkgmV0IOOQc5qqp49++TT8jAA459K9hpNWZ8/FuMro+v7WxsviV4YuvDUchc6larqOmbAQGYoNyfU8fjXy78ZPCuuaDeTeH9ZsZY2gJ271ICcjJH4D9K9x+AWr32v8Aw4sb3Tp2F7oF2UDd9h5A+mCR+Fej/G3wRH8SPgxqviGOyi/tE2zMLhYvm8tf9Y3A7JvO3/Dn8qVWWVZlKm9VzW9Oz+4/Z8RShnWSRqr4nG6+67X33Pn79iXVDBq13pjsA/O3cD06N/7LX1NoE5l1F4nC4JCZz94n19sj0r48/ZhW58OfFybRtS/dyRM0csTKcE/dyM8j5iPwNfXvg1vtOvyJG4BMgKqPbI9eep9qzzyCWJcu6ucnDVSTwkYPo2j2Xwwgitvs7vuRhhjuIwD1P4YH4mu+0K1s7iER3QYbuMuQM89sfhXC+F7WN4vPkJJQ9FGQOdv0rs9IjkudiyHyxkhN2M47cnv+dfC4ix+l4WPuq5b1PQrHPk2qlCsRYqVDMoHbqSO/5ewrmbzRk3NMtuxb5jh4zwwJBALf09TXay2N4sKzMyzNI/3VG4DA6dB8vfk/4VBdaCtlO2o3moYVtqwwsABE2R3HX159cVz05TWiZvKkpO5wGl6ZqmoXz2vllYgn+sVOBzz17fyq8vgnRtJs3bULhIVIJO8Dp37cVq+M9d0fwrA+qJOymKM7VMgCnkjPfPQCvl340ftF6x4g1pdN028lQSlkzEcnn6D/ADzXr4XA18W+yPKxmMw+Ejrqz2bxR8TPC3hBha+HDFcTbtsknQHPp/KqVr4hufFuXd8nGCFzye1eYfCzwRqfi6YyXRYwo4XcXGT0/Lr19a9h0fwfDpAZoEACkKoJ5Pb1p4ujh8PLkjujPBVMViYe0lpF7Gz4Z0eKzkSSSVuDht38v/r1qalpsEjtfvekHZtyzZAXt0x/kU7SLJ3AlMeWQkEAnrweavaxaTXNriOBQAgDt0UDH/6q86Eeapue9QvGNjivFtvBJCP9LUOwIGTkgDjnFcpeWc1nbeaEPB3EA9K3PEvgHWLm+XXYr2Xy1JAQOwTHfPbt+HNVrqBIkkikzggAhgQcjNemoOmlZnn4uCc2c3N4x0+2QW+poXjYbSG5K9qut4Q8O6xbDUfD1ysnmLuMadVHHJGeOv6VzvijwRd38b31o2xhggg8D/JxXKprniPQ4XFmSr2zfOR1K4OB19fzrvo0IVV7jszwMRVqUJLnWh6jp3he6tppJJi7bFyCOTj0/wA88/hW/pWlNMTaQhY22jc3lBscn9K898A/FT+3iunayFPmDltx3Mc9a9o8FaQ8iRzx3IlQgiMjJBHQZz1J45965MTCrS3O7BulXWhR03QJLULdwq7KwyDET8o6eo59K27aJLdTO8TMqx8x8Atgfjz0rVt7aK0lZnREP908D0Pb3PHfNU9UnjeUhrQq/JQs2cnuevHTv0rznOc3qeoqFOC90z/FE9oun4eIAOCu0nlRtzyR06f5615d4pS3MMo3mTYCAS2So6Zx1z+fWu68R380Z+zSRmSFm5kXnyhjuB1HauG8RlbmMlZ90bqQ5PQnpjNduHVkjz8Uo9DyPxO8tvd5d8fMMMvHOe+OvQfhXzf+1bfzajrdvotpEZC6ZUoeuWwOPft9K+h/iArRapGIpCYwThh2xkjn/PSvNtM+FFz8V/i7BcxjFtpEBuLsoPvHKiND/PPoDj1r63LZwoP2stkmfA5tSqYq2HhvJpHJfDz9nzx3cXNtpN3oclnDbxgzXE/AfqSQT2zmvUdVh0qD7J8O9Bk32loRc6jORwcdv8+lehfExNR8O+D4RDGWm2iNvKPBJAwOPxH0ryDx3I3w9+Gl/qF3IPt+pr5YYjn5gQfpwT+VKlUrY+vFPduyX6nqypUMrwUnFWUFdv06fM8Z+JXiU+K/Gl/rCkeW0pWEY6IvA/l+tYJIAwKexyCzHJ71GxyMkd6/UaVKNGlGEdkrH4tWrTxFaVWe8m394IepcdevNLnLYAxTM8Ybv2zTxz0xxWiM3seqfsq+OYfDnjj/AIRvUXSOz1XEbbuAJOdv55I/KvtrwjpOnxaemkCfKxKXjZf7zNkfl/8AWr81beV4HWaMlWUggjtX2T+zD+0no/i/Q4NF127VdTt0Ec6St/rAAAHGeue/v9RXwHF+UVJtYuir9Jfo/wBD9M4Gzmjb6jiHa2sb+e6/X7znvjx+z5ovgH4l6d8XfDP+j29zcm2vrVWwvmsGKv04U424HA4xjivQPhffGfWEuZjkyplSDkYzjrj0NX/2hfFeha58LtQ0yHAmjEc0bEDJMbq/HIwTtwP6gkVznwfufPs4Z0ZQqoFXb0A5x9RXzMp1quATqbrT5dD6OVKhhM3kqPwytL59T6J8IQuUdfNb53GeD+H0/rXZ6DCzE29pIFf73yjpx+ecHrXA+FNSEVvCRn7pUFTgAZ5/r+Vdtod/Fbs0hlKAABn4OeR+fOK+XqU25H2lGquRWOt0TTL++htrOK5SJhIC0eBlvVc84Azg/TvVvxhPaeH9JMiXSyyiM7llQA5I6A54x+uBj3p+DdVNvdILyRXkXf5chGOewBzx+fXv2rn/AIt6rNFCfPSRxKCWZTuUHt9O3AAFXSw9pq5c8RaD1Pmj9o74n30t3Pp1rcPj5sDnCg14X4Rt7zWtZa4fPmZysr9F5616f8X9FudY1qZLeBm3Eh2K9DnoKrfDr4ftYub+eNQEzhX4wK+roOFGjofEYxVK+Is9j0/4KLFofhuOG4lClXYyEqM7s5/qK7qbxTaRKt1E8ci57noc/wD1q84hgmmthHpV5GhfOAQcH2Nec+KvFHxZt9dOjaXLYW8UbZllkYyZPXAAx9a8/wCoxxNaUr76nrf2l9Ww0IWv0Prz4X6hoWszz2EupGEufM3e+37tdnqeiWel2/lO26CRVdW3ZznnHr69u1fJHhHxh4l8ORJ/as6mdh8s1uTtb8D0OPftXph+Oltd6Whv5lEioBt3gk9q55ZbKEvdPQoZxGULS0Z6T401vwVp+lmE3MaSrHsURFgCTknPb0/yK8W1PxTZ6jqrQRPnL/J83b14/CuJ+J3xUu9ausWEsj5J2xoM5/GvNtS+K/xD8H33264+GVzNa7sm4W6Ut9duP616NHLm4+Z5eLzhe002PoSSW0WA+a67SApweMd8fpXkvxKvZ7TxRJb6chZTBudVONxBPer3hX4j3fxBhiu9KtLjceSkkWNhx0Paui1DwWb6DM0IkkOQxU8sfpyRjPr2opUVhq15EYnFfXMNaB41oWrXMfilIVDK3nA7dvSvtb4H3cL+HIVuGJxHgDZna3rx6V85aV8Frmy1yLUTGGHmArnnoelfRXw8jh0PTYnYhEAGDI2M+nXpXPmNSE4qxtk8Z0pe8emDw9ZX2nLLLcfOGA3bDtlI5x1PofyA54rivE1glk8m5hIEUl/nBz0+UYznnjPbIruNK16zksDHcTxgDuzcL8pPY4HJ7Vx/xO8RWBngs4rGRg7OskqKCF4yFJ9T/hzXkwij3KtVo4fX7hbtJLaUDLAF0DAgDHbHfn+dcNrZt7JGjWMKWj+ZgMZOew/Cuq1yeO2gSP7SrOq7WlbHU9/z+nWuJ8Y3gaBpCg+4Q2ccgHkketdVKF5aHn4mr7rPJviXcCOXcFBQcgnjms/9mU3EMfiHxdcII0e8EDyAn93HEgY5PcfPnHr9cUz4wX8kVhLtA3MRjJwAfr2Ga6D9mbxDpPhX4YW8GpXkTTXck1zMUX5WLPx7n5QvP5cYr31HlwT03sv1PlaS9rm6V7WTf6HXeK5BcWr/AGuLCfdBb2yQQPp/Ovkb9ob4hL4o8TnQtPfNtYOVzu4dxwfyr3L9oX9oHR/D+lTWulyxvdTKRbxB+pP8R9AK+Sp55bq5kuZ2LPIxZm9Sa+k4XyxqTxVSNkvh/wAzweNc3jyLBUpXb1lb8F+owj+LHem+mRnnrTjgnA/z+VJkE7toxivtz82uM746dv8A69OU4APQU0FfSkHynI6duaQyZQCuCuM9zUlpfXmn3C3VldSQyxnKSRsQVPqCKhXj/wCtQzdSPzoaTVmCbTujcvviV461qw/s7UvE11NCQQVZuCPQ45NfTP7M+uJqPhy0G9mzCmQ4Iz8oB+vPevkoHcPx7V79+yN4gKadcWkkx320wEa8nKnLE9PavluJcHSWA5qcUrPou59Xw1jqzzLlqSbuurvsfW3h3VRb2y72P3iCB7/5/Sux07WJpXCll27VIJfJ3fU8GvLND1ZlhKxurLIMqBzk9+O1dbouqS/aEbzdsZwE+fOeuK/L50lzXP17D4lctj2HQr+NZBctGkU0alFCYJxgdefYfl+FZ3jaU38CTCU4KkFWGcDnpnpzWfpOsWjFDuIYrhApzknkj36H86xvip4+svC2gS316+1Y1zkt1I4wO/Jx781nCDlOyRvKqowcnsjh/F+l2CM90gTy0bkEZLH0x3/yKoq1lFp8i3HkKIxhnhQnHAOG+XGef17Vm6Bqer+J5vtOtwSRu+ZY7RnChBgbRn1HXpwTXWeD/Dv222a7kskVpgSQXYgk8A5GOSOTx6167jGhTtLc+Z9vPF4n90tDlLSDXrzV3SBIzalQyMnVVxxnI46DrjvWZ4h0e7kgkvINPjdEnBmQZBUsO4555/HNexN4btreRfMMXmIwBd0ABI/+tWdaL4QuLy40m4v0ikmlwxQDIIOQMjsKwWMjGV0tjvWWYmpDfU8lg8KeIEjR7vTZ4VlbbAJAQMdj06/5FZHiHw7qkdwTBdnd/dzxXvfiOLUbD7OsE0U1qBhSuFfGT6/lxWM154KsPMhu2VQ+TtkiBIOeo711wxnOrxRlLLq9H3aib8zyez8L3Yjj+1ahEhwMLGCMH3J7U7VNF13VYFtJMY5VS+Qo+mevpntXpqQaJNMlxpAEmRhmA2jGfQjH41ryeHWvLH7UbeIFTiJlXnGOAfbk0SxcYvUhYHFzj7isjzXwxY3Hha3XT7WxwYnzIsvyEHHHIB4OMZrtNL1yeS3huWssgnE0kQyQfbIwR9ccVpz2dkxbSbnTFAe3PmPHyx47E+n5itjUtB09NAjjsmxCEXcUzkAdOmST061jKvCTV0EcNiaSeug7Qbjw7qUYQRgkHaCI9oB9fofUcc10Vhpei6xD/ZF8sVxCxCmJ2xkggj6HOMV4l4ovJ9D1CW7s7iSPyiWwEGXA5PIznPAPetrwf8R9PilkN5IskrbH3hh8meh5PYcnIGKmthJThzwLwmaRo1OStoz6AZ7ewtj5VomwYURyHOFP0HtXFeLNat7Y3GUikaQFIWm/gbGAeOSRnIycZAzmlsvFMevaQtwbh8RYJRX6N0zXL65qxk8yGOUADlWGCTxj3rzYQadme5OopRumYGuX0CMFVmBIBYt647CuI8V6sv2UxMpYkkHDf19q2fEeuBSbZJMbQeSQcj8a4HxFqKyMfmAIU53DAzzz/OvSo0rvU8nE17I8u+NmtfZtPleSRW2q7yRseCP7vH5ZxXi2n/EzxrplglhZ63JHHGgVF2DKjGMA4ru/j3rEw006c8bAySoA2cDGcn69vwzXlAPOPyFfomQYKjPCOVSKeulz8sz7H4iGNtSm46a2dh99f32p3LXmo3ck8rnLSTOWJ/E1AckcH2pxYrgkZz14psnKggDOK+nSUVZHzDbk7vdiOc8FuvqaTgAk8nGOKUsGwWX/AOtTTkgY5pXBDQSPlBJ9KMAZYcc9KQggHB/+tTsHHDfpSGKM7s5z7gUAk9/z7Ug3MxGPzFKOTx0NMQ5XwcFa9J/Zi1lLHx2+nM3F1bnBD4I2nJx74/l+XmbewrY8D+Im8KeL9P11ZMLbXKmQDuh4bt6E1xZjQeJwNSmt2vxOzL66w2Np1HsmfbOh3c9u6fOSWUkZONpGBjoPbt2Ndr4SuUYxzzkffDLxjBz0PPt+Ned+GLqDVbUMIyVl2kfMCATj69cfqfWum0bUobW8W3uHUCaQGNH6YXn17cV+R1qbbsfsOGrcup6/pls8t5HFCpdVYktuOAD09fY/jXnfx9udSk8Q6VYTgNC1wZJYy3dVyBz1wcH8K9H+Hl9aXksbR7Nsu394XO3gD09j61U+Pfgxb2zt9d06JZfLJkikRsk8Y4HOThs/j3riw0vZ4lXPTxKdXBtRPBNW+L+n2vieaLUAUt7MiJHzt3cDjP5DNdDD+0Jbpa7NHuBsOAFzjjHr/h6Vxlj4JTXIJ9P1W2V2kkJO9CDksT0PI/pXP3nwn1fwvd+ZpN6s0fOLSZSrAezHr7dq9x0sLUfLJ6/geLhZ4qk+emr/AJnr9p8StT1W3kma5jEZxvVfp7+1QpHHe3JkhOJI23O69249PrXi114q8XeGWeH/AIR66Zdp3BHBDeo4/wA81m+D/wBobxDPrx0W/wBGm05EZQt3fSFUbkc5CnPT8RW0MvTXuWPTnm3JZ1L/AHM+hZ/EniK2kEMcxZUQjDjOF6d+lY2tfEm/jiEDQwkN8uSg3L7g1q+A/APxX+NPxQHwj+CmpeFvGOoT20stpPo2pyxxXiR23nytGtzDFL+7QMCHRSWU7dwwTxut/Dn46aZqNzY6l8OZ4ntZ2imSRog6ODhgcsGXBz1xj2rP6ilLVGkc9oSXL7VfPf7mb1p491e6QRPnhfxxzj+fXNadj4718xmA3xyVKZaTkfjXOeHfhb8c7qRY4PheYg/3Zbi+i2AZ65UsRXd+Af2Sfjl8WfHN/wCBE8Z+DdAs9Ot3ludd1LWCtrvULiJN6K0jM7ovCnjc3KqTSeEp9UjKpn1CH/LxP0/4BhSfE+8hmKmdHdHY43Z9D6e9bln+0DY28yrqVkURpBnI4XAxxjpnvXz58QPGeqfCv4hXfgfxPAk1zaq7x3VswxImWRXC9RkKfX8cVl6x47vtUsY73TbO5dZV3Ltj5x34zxz/AErZ5bF203MFnEK0G4tM+gvHPjTwj4lsfIufKVX52c5c9s+nPP5VgaNqVsdRlGk3S5HB2yHOMdMc8ZPp69K8q8IeH/G/iVy+pSfZYIz8rmQOzcdeOMfn1ruPCvhyXT/F1naQxyyRuR9oY5Ik9j0HHcVDpwopxTPKxDlXkqnLY9l+EPiF9Rm1WzSRpUiABO7rkYI9R059an1S+S3eRyoHAyB3J6fhW78OPCsOiaPqGvltq3BJhB/iA46/ga8+8ZyfaNRuNQRSs0ieWxL4BXtj3689q8S0amIdtj341J08JFy3MDxVcGaVjHIuRnBHU+tcJ4huHkSQtjLLhVX3ycflXQX95IEmWdPLLcqW7ADg5PcY964zxfdfY7KYRSYEaFVLnnJ78+pAI5r1KNPVI8evWvFs8M+N2tTX2tw2is3lqhkGW4Y5xnHbow/CuGyGOCfpWt451X+2fFd5dlgVR/Kjx2C8Y/PNY/IPDV+oZbS9hgoR8vzPynMKvtsbOXmIcp94/iOKRh0yTx/ntQzHdnJ/GkLDqD+ldpxB0yevvSnB6cn3pm/AyOccUjE9sHFK4wLEduKdu7rimLnuMUo45Ax/SlcLDtxA7fWnEtt4bOO1RDaBg84604EYxTTAchU8nv8AjS7s/KB0NMzg5DdP1pwC7fbH1piPp79m/wAaprfgeCzmunM1swhkVcszFfUkjqNvP0FeryRPFMdYmnklVDhIFB4B5B49Pzr5C+A3i6fw143WzMgWC+XZIx6KV5DfzH419Y6T4ijutPdo3G7yA0fmAcg8gcnOOncdK/NM7wTwuNly7PX7z9KyPGrFYKKk9Vp9x6P4C8QyW80FoIWQJMF2RHDMAeecjIxk/wCNeu6811rnhnbGsW14h5Sl8g9z/Kvnvw/NLDfLLCfKZFKwkKSox32gjOCK9S8H6vbXIge+vA5tpCdobj5gRwBjsePTP418xiaaTuj6vCVHbXqcovhMxX7RZjDhmJwOAevcZqDWvD1rqUA0u4URsF/dXAA4Poa76S0htrlrkQD5mbBVQpHcn8ax9TtLC8ncRRrnYWVWyMe2e1R7ZuVzsp0eWPunk+s+E4QW03UI9rhSNoz8y88j25/KoU+Hmg6nbfZW0uF3aMqjuoO0diD78/nXbarpokRYtUTaBkxnGCvP6isdLHUfD12L5bgTJztbZk49D68V3Qqc63O7D14RlaS1PMtb+Dk+h6n9tsleIiPfHLaMUbGPbBHUf/qqLW5PifqugnS7D4ma9bwFGjVork5G4YILfTPXNezzazb3VgpurVuPvO8YHY9D2/8ArVky6noMcgkmso5VjYFoFHyv6njn27HFdcK2JhblkdlTB5Ti4P21JM8o0/4n/tYeGrI6VYfHbU3gCgKJNMspHx7s8BJOO55rA0DVPj5perX3iW2+KniOaXUp/MvHlvmEUkgUDPlIFTOAB93gACvZTJok33LReDzlPoeD2+o5x3qymo+GtHb7WbWHzoomVY40yCcEbj6sQSOfb8OqOLxDve33Hk1MgyOiuanC782zxyT4XaxrerN4m8byXF1fTkLLPdf6zA5AO7kD5voBmtTRvCkK3SC3tyNvyhXAI+o9v8mus1Ga+8QX8rmFo1bOE3ZBOCBn14Jq14Z8PvZXuS6yTMMnCk7T3/nWc680tWcdSOHpWUIpeSNrwt4Y8uzFjHDHuwu7aAdq+mO5966Ox8ESy+QiQZdnA+bPHI5OMfzqXw5bpaqZJI9pY4O4ZLen9OK6DTb5LXUVknnOcAbWGMYB/Dk15U6kruxn7NStzHUeJ9TtfCngA6dabv3UASEA4DADGMmvB/Fmp/bmKbQkyJuVVI+XgjI7dDjmu1+I/jTfm0gB2Rtkllxz0/ma8n1DVZTcyOWWRy2ASvCitMHRfxPcwxtayUEQXSRRzLdaneO7iPDMB+fHQZ4/L8a85+MPiZrXRpE3MWPXnHPbOOw7/wD667LxFr32W2aJ32FRhDgnnufT/J5rxrxNq9z4g142oICRsCWZc8twMZGP59fpXtYWlefM9kfP42ty0+SO70PJGeUSsZSN+87j0y2eT+dBfHGP1p9+whvZ0HaZh6fxGocjnn8a/SaelNeh+azXvv1HsB/e4+lMPQjP0zRkFTg8etMZwTz+dU2TYcWGOB1Gc0nJ+YHP401XBPDcCkPHvz3pXCwZI53ZHpSlu2D7kCkIAG786azHA598GgdiQFv4ePxpVOG3DtTQcndkHNLkHkYpiHd8Z70u4BskYx0piEHG4fWlDnJHH50XEbvw9NtJ4z0+1uhuinmMEgz/AAuCh/8AQutfRPw38UXUU40nV7iNbmxYxvI6FfNX146DBB/Prg18z+G7xbDX7G+cf6m8if8A75cGvfPGcH2GaPxFASwwVuflLZUHjkZxj88E18nxBBSxME/tL8V/w59VkM3DDTlH7L/B/wDDHtOl620tuhuWXr8pU53DP+H+TXY+CdcjimzHOpy2Dn0yM/jXifw/8Yi9tB5soDKoJLyZ+X1Pp09u3Fd9oXiW3imQhyQTxtGeePSvjcTh2m4n22CxUXFPoe32t5Dep5QLkp1YHIUjPGcc9MfSqc9m0F0skcVw8W7MrBupPvmuZ8L+KrSdpLaEMGBIkBfGeM4689f510y38twI2jgaRZCA/wA4BHBwfx4GP6V484OErH0FKtGUbobqq2t3a/ZZ4SiLgbiB84x6/pXKaqdU0uXyoLfdbMc9cgY/z9ea6q+huUkCMjxs2DtTqCOpyRj1pZDpsrGZ96hVAmUr93jIY4/zz9KulPkQ6sVVVmcFf6lo18phubd7ZureW5CnnnPA44rNj8P6BIPtEM6sCSSxk2g59j/Kum1dNImuHlg08Nv+XcVyD+ffNcxrOl6eZSqIIyDyQcE/Q/5716NKpFrscM3iKXwyKd/oOlBgFuxE2TySKdb2mjWwEiXckrHI3J3z71b0TTdIjdp75fm3fIrE8H8avXV3o2k3EQi09isnIfYPvZ9B3q5VNbLUmMsRUfvSsZ0iXGpMbXTLNIo1ZcsDya3NL0SHT4SilnlwNxI6885/GrUVjFFB5tsuxpMfLnocD+n9atx6XdwxLMRw/Ubf1z29a5p1GzRU1DViKktvxayBNoO0bgeoGMcetUtR1byFAN3iXb9xOmfT8PpUV+VtojbRXDhSDtkzkgnvzmuU8Y+IhbzZgi8zDHOMcfpTpw5mY1aqijO8T+IJ3lMkzEsBtA38DniuXl1sLvZnUbAQV7Hn39h+tZ+s+IJZLkwW3AGWcluh4z9c1zWv+LljieGNi79GMi8fXoe/P+TXsUMO7WPBxOLTd7lf4ieMY2gESTb1HRkI+YdPx69PpWBoWlyWau9xMd8sm93PTPP9en4Vm2UU/iXxAVzmO3kJcMOrZHOD7YHbpXWQ2AtUCiYOoXHzAZPPXOOTXfUtShyI8ulzV6vO9jwnVAF1C4TIyJ25A/2jUAPqvJ6+lWNWIGq3SAnAuXwT/vH8KqlgAccH1FfeU/4aPh6iftH6gTxkDHPakOCck4JoDMBjIzimeYC2TVEJCliCTtJxSH5cnd0H60jNuByRgdKRmUjcenelcY4sNuD3poyTk+nWkVsvkZFKr5OW55pgh6vuGMjr1pwLenPrUe4Yzjn9aUEHuPyouIfk5GR+tLzggEVHvAHy/iMUqvnp37mgCWNyrZU8j17V9WxWMOu+HY5ZG3Rz26OFIzkHB54+nFfJ6yHGB3/Wvq74Vypq/wAMtFumlyRYxIcHsAB+fH6cY618vxMrU6U10bX32/yPqOGXzTq0+6T/AK+84UzXXgnWjp5nkWHjyJiOOg4O3njt0yD69ex03xwIEi2zEFxkFjgYHfHGOtN+IHgz+3bYy4KlFwm2PORx049R75715tbarN4euFspYpMKxVjKuTj6dh17dvpXjU1DEwT6o9So6mEqW6M978J/E6wtb0STSRByo3HzQWcdmwPT+XTPSvXfD/i2yRVuxOAHh3ou3O4DqPf/AOtXyBp3i1ra9TUoLlNoALpCnzg+pAIPUDsTj0r1Pwn8RbDVtOja7wgRSSQ3zZPYHt7/AJV52My+6TR6eBzRwvGTPqCPWl1PSpJreSBSyFQxOTu/ye1Yuk69a2t4mn6pCjM42qzPjzD7AHtzXCeF/iLp98YdCgnWJlhH70277VHoDgAEHHGe3J6UuueINFg1Vb+a0aZvLBMsA3LtJKjGTw2CenXpzxXj/U5RlZn0MMyhKmmdt4gurO0uJVfYjKfk2rwM9vrz/OucubjSppw1zCqtnO5sjaMdcDgd+ara/rsV9Zu9rFODFGrQQSAGbceFzzn8TgAenNZlnbT3MX+lXSieRNoYEo2RxnGeOhPoevFaQouESpYtVHsbQh0uW9HnSrHGeANvPp+dW7iw0i2gVUiaV1kAGADnP07ZrO07R2sYlvEvQW2eYHnG/J9cVHr95aTu19a3qxPGNjyTEIvQZxkjIAJOR+dPlcnoEq0Yxu0dLoOmQRl7m4cZPVGboPQdunrT9evLSwti8TshGchicHqT/KsxfE2j6LCIZtSRztDSPjpwOD9c/wAq4Hx58RJDdTQW8hkJQGLAIHJ5z+X+c06WHqTmc+IxlKnCyZN4p8UCFWc3ZYNITGU46fyrzjxT46WdHMFyAQMKHHftnmuf8e/Ea+vbz7BYsjSGP94q4ZUwR8uR9Sfzrj7jUGmje4a6ZfMQ4LEZOO+D75r3sPglFJs+ZxGYucmom3Nrt1CHZpJCDKcBEzkY757c1zet6pLqU/2e1Uu/mbGVRz6Nk+nT8KhvtQunH2ONP3YTOeuPb3PP86teH9LCT/apoz5jr0U8888+vOe/p1rutGmrnnc0qjt0NzwzpEdlGsajLSHe+GwT6ent37VsahbNEpXYFPBPIz09uv40aBpgiXzbn94xYljnJ+90x6D9KsX8PmSeYY0cROdpOQfu4yAR3JNefUm3M9SjBKK0PnLWWxrV38x/4+ZOox/EaqMehByKm1kldYu9xOftL8n/AHjVbceg6mv0Sm/3cT88qfxH6jy4I254HpTHIxnP40hYHkYI+tNLkjnv0NVdEDtwZSM59cHpQ3HTmmFueT27Ggkk5A68ClcYoPHvjg0KWIwf0pny/eGKXf68/jRcB+87s9fqKXcG4zg0xMs21VJJPAAq1baRfT/N5G3Pd+KYiEtgkMPwzSg56dfTNXf7HSLH2m6AJHRR0qNBp7MUjfcR6t1pcyWgFcEYznrX1B+zzAus/CjTrGS4YAluUfByszED6HGK+aglp0EPHXJr6N/ZdvY7nwDBYqvEdy6r/sncWH/oWa+d4mu8BGXaS/Jn0nC7X9oNPrF/mj0LU9LMcbjzGVDHu8s4BQ7evTjp64rzP4meCUjgN3BaAkHKDyR8y5yc9vfjFezy24mhZ5YchcbiBjPPf9Kw9d0aJvMs7hEYMMREt978fz/OvjsLiHTmj7HF4WNSDR85RO+h3sa3LMNkm2ORiCeccHp17EetbmieJLrRJ5NTsYhKrjdcQsn3gO+CQeMcD9a1fHvgsQ3P2xbUssnRyDjoce2c/mfxriJ4rvSI3M8gJV8AqOx52t/9cADNfQwlCtG58xUhUw8rHruifE+x02FGgbbbzZMbH5cE5GDhh6D3/PjstD8Zw6jei6XWIFhiBLGWR285+MFQT6AdAevWvnVWjulMdrceTMvLIAGVhjn5fyzUtr4n1XRbwmWSURqMbbV8puOOSDz6fTFYTwdOe2jN6eNqU7X1R9XxeIbDXhIbOaGK5BDzzxruDAHAIxzxzgAnHTvzK2k6fc5eGeCQAbh5rEEsTwRn8/r9a8I8M/HC2WziM2oMZsbsldwzjoO2OnFdVL8Y7V4Y50uY5JFzsJLAA454z6ZrzamBqxloe1RzGhKHvbnoln4sW01N9OtLmKR7dgjIc7U+XgZzn/Pr1pX/AI6vRcT3Ekkq4mAaWJCNwJ/i3DqCO3bB78eVX3xQ0+yIuUnj84sNoTOVBY5J9RjGPQ1zfin4vabcRNawalNIhkBWPPyhuo9yP8a2pYGTexz1szvG1z0/xJ4/kvp5lnijLsgAY4wcHueT36ev1ry3xv48vZbhTDMGd8JGjHcRhSOuTjBx61zWrfEHVb23lit2x5jAvkYUdiBjr/WsWG9a3lN5M/mzYO6Rvbv19Pb1r0aWFjT1Z49bFyq6I14b+UAGaKMFmBdST6jk5xmpPt0Ek3+kSKFVsfL0BGOP1NZ6TyXk+zJO4A8Dj1z7/T2q5p2kXN4PLeJo0UgRsRkkDuM/U5PtWkrLciEW9ixodg2o3JvnVwgwFWRSDt9T6cV2uiaY8YjKqJEVs/KvGOOnr1qt4e0KS3WOBIQ4dj8hbG4k5Jrqbeyfzo1YKQgBWLjDHnByTwBwe9efWrXZ6tChaNyay047VeZGXI4UHAUEfiD17ZqvqFq0du0kiksV5Ga1Y9nVpN+cAYyeP6fWqOrD/QGKLywI5HIH/wBeuByuz0YwSifL2u2F5FrF0RasB9okxge5qk8FypGYXA/3TWj4p8cJpPjfUtE1m0JSO8cJIBtYDOR/Oren3Wma0pbTNRJOM7G6iv0nD1IVaUXF9EfmVeMqdWSa6s59g4GQDx7UjMMYHH1710E9vcQsS0asPY8/rVdv7LZttzEBz95l/wAkVq7rcyvcxi2OM59hSEqxOPWt2LTNIu/9WkbcdUemv4Zs5OIZnTjpjOaNWgvqZVrYXeoMBbwk+pPQVrWfhIZBvJC/95U/xrZitYoI8k7EUfKo9PwqK5ukWNtjAY4HPWq5UtyeZsiFnpmlqWiRQQOMLk59M1m6n4kRQUiUKexHNQ6xqhdCMkgZ6dq52aK7u4mmt4pWYSYwASMVhOpK9kaQgt2WdQ8RSynaT0OTzVayubq4uES2DFieFUZ/Siy8O6hqE5WcrCq8uSwJA+grqba10vRbZbCwiw7/AOulJ+YjrjP6VnCEpsuUlFWHaP4Zu9QVTeS+UgPCg/Ma94/ZplsbGxutKgziC8G4MeclVOa8k0GUXW65JwvRB/dH9K9K/Z0iaCyuNS3kNfXkkmfQK3l4/wDHP1rg4kjCGV26to9XhmU3mqfRJn0BpryS4JjJ2qNwH68dadeIsxOGXA6gPyPfiqGkyXDIBHjcvG/HUY9PwrSjDmVZ5Bt+TBCKDgdjx0r84WjP0yWpynizwxBqSNHLEzxyITngA+xOOP5H3rzfxD8M/svlrslkRBgSY7cden+fxr2u5splk82SQsrDhduRjv8AqfasnUtALRB5oQ+WwTGMgfU9/TH4etehQxEqatc83E4ONRnzrrHgW4slZ7WMnzByTyR2P6DtxWPNHq9nP5pilJbvGxAxx6jr7e1e8634UgcvIbRc4IVzhjnk8+vSuZ1PwUZ5GN1FsJJAC7grD6H+detTxia1PFq4Bxfunk0lzEJWjmhDP1JU42598fyqKSW3i3iO+khBXLETN9Pz/wAK9Kvfhtb3EW+GNNwJIO3OT+P9Kyrr4T2dywDoytyCcbfw7cVvHFUzmlg66ODkhsbgH7RLI3cl5iRx7ZHPtTZJ0hjP2dNrHrsAXHb8u9d3F8HLRXa3WB3RVB3buM+men+R1q5b/CXS4JU82BQTwG39PxpvFUu9yVgq76Hm8MtzKXjgtnkQMAGycA46/rmruleHtQvmUMQnAALHk9cj1FepWnw/sbGIgW+8jsB94D36miPwv59yltDaxxJkdTuzk9f/ANWf0rJ4yL2OiOXSXxM5LT/DSWMJGwkAYWONBkenXrXSaDoDsole28rcuW8xvmfphevvnit+28LQ252lc85fcMY7dOp6j0rXh0uLztyuwJUBWAbp9Dx6flXJPEXR208JZlLSNHWFhJIMg9GY/d6DA9OPTmtSeL5nKjJyAT3/ABFTW9lMWVYz93OMEkAEg85+h9quS6eiv5clw0mQMJngY/AcY/z68Up3d2ejCnyqyM1IIzAbiQ8BvkyOo9OR/nNZ+rzEwYfG45bB/D1ra1eAomZyXPA5bOPQD9TXP6orsQ4UABePf3qL3LkklY8Y+LPw3svFwuryCNVvouY3A+8MdD6jrXiBk1Xw/ftGWaOSJiCOnNfUuowtFqhYA/PlWzXjvxy8HrbXw1u2jAEnEu0cZ9a+hy7FyUlTb06HyuaYGLi6sd+pg2PxCF7beTfREyDow71vaJpp1CAXNxdEIwyI+uK8zkjKNuUgHsQeldn8OPFLT3H9iX7DcR+5bH5g19PhaynVSqany1am4wvE6a90HTbSISQ24DdmHc++KoW5v7ScGGR5og3zROcn8M9a6C6s/Mh2MOo6npWW2nzRuApztbPHJIr1KlGLaaRxQqO2rP/Z;" parent="1" vertex="1">
          <mxGeometry x="126.5" y="-70" width="130" height="130" as="geometry" />
        </mxCell>
        <mxCell id="ONlaFY43-rq6lhPOw7dl-13" style="edgeStyle=orthogonalEdgeStyle;rounded=0;orthogonalLoop=1;jettySize=auto;html=1;exitX=1;exitY=0.5;exitDx=0;exitDy=0;entryX=0;entryY=0.5;entryDx=0;entryDy=0;" parent="1" source="ONlaFY43-rq6lhPOw7dl-2" target="G9MimPonou3kFe0NSSdk-14" edge="1">
          <mxGeometry relative="1" as="geometry" />
        </mxCell>
        <mxCell id="ONlaFY43-rq6lhPOw7dl-2" value="" style="shape=image;verticalLabelPosition=bottom;labelBackgroundColor=default;verticalAlign=top;aspect=fixed;imageAspect=0;image=data:image/jpeg,/9j/4AAQSkZJRgABAQAAAQABAAD/2wBDAAIBAQEBAQIBAQECAgICAgQDAgICAgUEBAMEBgUGBgYFBgYGBwkIBgcJBwYGCAsICQoKCgoKBggLDAsKDAkKCgr/2wBDAQICAgICAgUDAwUKBwYHCgoKCgoKCgoKCgoKCgoKCgoKCgoKCgoKCgoKCgoKCgoKCgoKCgoKCgoKCgoKCgoKCgr/wAARCAEAAQADASIAAhEBAxEB/8QAHwAAAQUBAQEBAQEAAAAAAAAAAAECAwQFBgcICQoL/8QAtRAAAgEDAwIEAwUFBAQAAAF9AQIDAAQRBRIhMUEGE1FhByJxFDKBkaEII0KxwRVS0fAkM2JyggkKFhcYGRolJicoKSo0NTY3ODk6Q0RFRkdISUpTVFVWV1hZWmNkZWZnaGlqc3R1dnd4eXqDhIWGh4iJipKTlJWWl5iZmqKjpKWmp6ipqrKztLW2t7i5usLDxMXGx8jJytLT1NXW19jZ2uHi4+Tl5ufo6erx8vP09fb3+Pn6/8QAHwEAAwEBAQEBAQEBAQAAAAAAAAECAwQFBgcICQoL/8QAtREAAgECBAQDBAcFBAQAAQJ3AAECAxEEBSExBhJBUQdhcRMiMoEIFEKRobHBCSMzUvAVYnLRChYkNOEl8RcYGRomJygpKjU2Nzg5OkNERUZHSElKU1RVVldYWVpjZGVmZ2hpanN0dXZ3eHl6goOEhYaHiImKkpOUlZaXmJmaoqOkpaanqKmqsrO0tba3uLm6wsPExcbHyMnK0tPU1dbX2Nna4uPk5ebn6Onq8vP09fb3+Pn6/9oADAMBAAIRAxEAPwD8bywz04xxQA5zkGlHJwR+JpwORt/WvaMxAAT/AI1Q16/FnZMiA7nGFP8AOtAgnjg+/tWJrk3m36xhQVTk+nNc2KqOnR06m1CPPUMUr5aIWyXYdAelKk5n3RJ1wefUU+W0MjtJkHLYyPT1pbLT2juduSDkDkV42ltTvs27I2/BHhi71e9dYUOFQlmPbg/nXuNr4M0rT9FYyXtpbXUN7BLEbwrt8swMFJzyQXIXI/un0pvwA+HQgjhvpwoEzqquU3fMAHC9Mn7rA+3cGvXdJ+HGo2lysiGSMJ8kE5uI9sUJ+9tUoSDz6+h46V8xmOYx9ry32PrsryuTo89tzx7T/hNB4/uYrvwlCmnytaqk0tjcSMuV+9uzGobuNyMeevHNdjZfsf6NryiHxHqc7xrjcqtvlbgDLSkcewHTA5xkV7TpugwWFqsdoWYgfPJ19MBccD16Y5rd0bQPtUfl7dpYg/KcEr169smvBrZziF/Ddl+J9JQyHCtfvY3f4HlvgT9jj4NaXGJn8IJeseEfUW3luv8ADwD064/+v6No/wCz98P9GgD6J4VsbNXJDNb2iREDqCMDB9O5rvdN8PK1kvl25RcbY84yO3QcD2+lakVoIbdoLZfMPIj7EADgA/j+lePVzHF15+9Uf3s9vD5VgaEPdpr7jin+HOgWhFpYWwjZlAYtHnIH1HPOeM45xxVO78OJpN1DZW1nI/nOVV1QFIwF788dP1FehRWbFiZpJo2wQH35OT2G0j/P4UHTp40kNrdM3zEhQDgj1Ix39Pp71nTqy6u52PDw+zFI4WbwxbOSwsgTIMZCge/pWD4l+GGk6zA5/s6PzzyGCDg4HH6V6sNEmAVkm/d7sAFAPz71Q1HRJozuAVi64GRjHHvXRTryi7pmdXCQmtUfLvi79mW6kuvtmnwA3Kkk4K/OD6kdDnJ59Tniqvhb9lXWWuRLdNAISSTG1tuyCOgJOVI+g/Cvp+x0OV3L3VuSAd2dn1479/btWhBomAWhsSARlnVGAY4/vY/nXo/2viYx5Uzy3kOElU57HlXhv4TaZoGmQ2tvAEMMYQKh7YGctjnp6etWX8KgXJWS3JUnAUD5QT3w3H44FelvoakrINOCAqcFwzEgfh0/z3qL+wZEQzXlmxXJYB/XGeOeeK4niZylds7fqdOMVFI8k174SeEtXhe21KwyrjMqPGoOCME5UAjPf8u9cbL8ANL0a1bT/C93cW0G/KWxm3hRnPCtkHk5zwc98cV9C3+hA2oMCff+6SRjIGevGemfSuV8Q6e4l3TMOCrFgAc5J47jGP59K0pY3EQ0UtDlrZbhpu/LqeH2Hwmu9J1NLmC6VYvODzI8TDay4YfxYCnaO3TH0rpdSXUGHk3FgrAhd7l85AGCQSByRj+ddlfWb+erxw7c/KVYEZwff+vb6Vl6hay29sYkUduuODjp9K6Xip1ZJyONYOFGLUEeVePLf+xdLurPWNMlurO5hY20tpBvNuTn5GA5x6MBjGQQMZPzr488M3XmjUxbFYpifLcgjdzxjPJHv3r6213QbjVYf7N3KYA2Zd65ZQORsIIxg4IPUY+leafEf4YibSLmR9SllVIfLgSeJdyAdPmAG7sMnkcc8mvdy7GwpNJ9T5vNcvnVjdLRHzJFE0MhtnDKCxBKj8+O9NXEbqrLkoxIBOO1amr2UlpeyxTIUkQnHGPcf1rLL+buBA3AZBzwR3r6qLurnxc42djb8PapHcAwSyjdjKDFaoKsuUI69a5G0k8i4imC5AIJHqM9K6yDDANkD3HevZwlbnhZ7o4K0OWVx3tt/KmkAjBPfge1PYKcjPU96bj+DHfp6V1mAqgLyDn3NKBngHp6UgViMD07mgc9OeO3NACnG0lj27msO+QXWpuB0VgWIHati7mWK1ZnOOD9K51JGlvCYjgvwADxjPP6V52PloonXhluxk0eR5qDCs4C/gK2fBmjXGtarFtT/looJ5O3v/n6VlzP9slSCGIIiuCOMYzk/wCfwr1L4KeFW1mGaWGMGTcwgJAPzYyGOeP/ANVeJiaqpUmz1sHSdeuon0D8K/DVm/hy3tGi/dKMqQ2HyBnO4EEdP5e9ej6Lp0ZVIJVJiQEqGcsW6nknnk1zvw0sVttCgMgAVxnDDHGa7fTLOWSQRLtGQCxZcDjv7d6/OMZVlKqz9WwFFQoxsuhLY6U9yxM0RKl+ijbjk+/POPyrp9B0NF2hEVItwZmZeBg9f896oWEU/nLADtXODIynH19vr/Out02ykWD93KpCk4IbgkgHjt1z6/4+RUm+p7FOMUzR05bWzkWEQsyqvy4YdcjGfboePStU6ZFPEYDICpUfN12j35z9fSs/TYPlMLxhCTjBB547f5/wrTt1WJBFNbq5KgqyEkHB7kH3rnVnI6dWitHp100kc8MZJXgsXHUdvYZ7+n14k1iz1FLIXTW7yBiCwhwcnJ3Eg49+RznnvmpDdtZzlbW4MStyFDhguB1zgfyFSyXVwYfIluskn90Qg6Zwc4x+ldC0J7GfAlrcYdQjLLkhh357EDH1/Gku7ONC0DxrsPoT274xj+dWLQxW8P8AZ0EwVgSwUjAzzzx161I8UqSCfLnkA8d+mDiq2ZTfMM0zR7LaMtvPdg2B9f1pbywdnK2oJEeSwVOvr/WrSWl7FeJdnUI0jU7ZITGMuD0we39cU+8t5GP7vbg8biCQPrj3/wA+qW9ypWtYx0s1uBsiVwEBD7jjJ+vT9anfSRDHH8q7lXA3OCzcZ9TxgirkZkkUTbdu04UeUcD8O47njn2qvctZKXaSOeTCEjeQVT0xz1z6frV3vsYt6anOapayWoYSW3yoAQd3LAng/r/PHvy/iKztGRgy/eBwVA498/XNdbfTPOm6OF1C5dwFHzKemex/pyK5/W7PzwLmJDF8uH3AgdcA+tax3MZnG3lvG6MYpA207lQ9QSeoA5yP8ayNQMTQh24DKG+YdTjHFbeoWsreZO8IQk4Y4yD7f561k6oVlZJTJna2SH559M9f/wBfPSuqBwTtfQ5+ewRAzOgCtyv06GuX8X6d5tlPGIxh48HPvwMV1t2haNpIwdpbKhVx/k//AFqxL6xMsLIwU8EApnr/AJ/zxXbRk07nnYiCcGj5F+KGlxafqs0SxYIciRic9/yx1FcGQpZljUDd2zn9a9i+NejA6hfXEUZG8kOmOnJP5cV5E0GFbDDIzxj2/wDr199g6nPRR+Z4+k6eIaGJCR5YwRnBHFdJoNzHd2anaNyjDAnPNc7I48oAtwBxk9q1PC9xClzJAWK7xkc8Zr1MJU5Ktu55leN4ehtnqTuGKG4IP86OTnjPtStnqoz617BwCZGfu80EMen0xTi2Tnr7UZATBFFgMvxDJNFYMqggscfQVj2yyvd4jPzAjBHv/wDrrY8TPi1SHJ+ZuDms6yM6OJ4gMhsnPXsa8fGSbrHfQX7scVUyBxJgF8YU8n0+o4xXuHwOkji0yLTrWNTdXjCGIYLDnq5AI4UHcemcAV4lKkJuUQE7VBzgdz2z+v419D/sy6Jby3AuCMAoQsjnGWx0/INn6V4WaSUMK2z3sni54uKR9F+G7a3tLKFVVSEQBV24Ixjp+ma6KyjKJvljLHByQc547e3NYGjyxo5ZW2qXIC468/8A1/1rd0+6aXaTMdufmZV6k+nv2r86qpt3P1Si4xSsb2hW32ucy3CssKxqdgxg+3+feu08O2SW9olnETjB+aSQH069cn65/nXnGueLE0Cy8ve6xs2xUUHJc54PPsxPORjv0OdafHXwxpEHnLrqtlisKpgGWQ9ctnPBJ6Z79e+UcBWrx91FVMxoYaXLJntJlhjP2Y6jGXjfJLMEzx6gAHg9cdx05qayR4xuWWMpCWYMjAnnk9Dx1/H0rxrw58bbPXbqHdeW8ivKVaTzNwXuF2kA/iQOo5r0fR9dtph5jTwsWwUMYySAM4OGbr/npU1Mvq0d0XRzOjX0izViN9eaibeLATBd3wQCT2zgZ/yPWta2REAiCqdmFIKgZ54yD/n2qjZX1nBdLPcygP8AcyE4OeuT3x/hVg31n5bRNcliOTzkk9cYx61zuEk9j01Ug1dEn2eLzHeP1xtKnrn0HbNT2lsjt5kkbHOeQMBu3Hvn8aYrRTAFhwykAbOh5Bx+tael20C2fkJFwMH72fzz6UnoEbtkL6eLxFd5WBVxgscA46VTvNMlhnKWs6Mwc7lJwPw9/wDH2rcli8mHMmwJjaMdh26fSs1Wtc+ZHAGBBBw2MemcHJ6+9EW7jmZq2jC6ddrBVXlmfAP4dxn+uKqXFvKNwaYKofA2njr9f6U+XVo49ea2+zIsa4wxGVLYye3Bzz36VIJdHv5SGiZyp5UdCOv3cg89+elaezm3oZSnCK1KV3o7XNtJuBw/zE7eAMnr+JP61g3UMLW7RRqu1jtPyjofTjIHArc1fWLDTLVCNWEWWIFuXwTjuM9Oufoa4C/+JGnxas1ve6qsUQYqXeMgJng9fcfofSuungq0ldHlVswoQna5S1yyiEphRGD9uQQO3X0/z6Vy2s2ckSlEHIJCkLwSfXPrXUar448N6gkk5cSNGhB8tgSCCffPp71zEl9Z6vHJcxXaNly0ZjORg9Oe3pXQqFSnujn+s0qvwsyJ4QkZaRcnoGPcY6VlahBH5e6HhSo+U9xn/wDVW3fPBFCxbDoW+YN1H4Dp269qxLkkysWy20HIH8XT/P8AkVvAxqyTVjwn9obTnskkvrdsiZWypUddpwc/mPr9K+e7hRJKwIGSxGQfevpP9o2Nru3lRA2xVO3aOhx1+n+NfOd2qfbWO4/ITj1Jz/n8q+1yl3wyufnmdxUcW7FGddhMe5SB3B6Y/wD1Va0Ntt6o27gy9hVaWOPa8inAJIHHX/OaseH5WOsIqgFfLI5r2qP8WJ4U/gZ0seNgJfPvTj0zj6e9IAq5BHHXAoOByD19a93oeb1HBeckfXvQDyQRjA5oXk5f8cUvBG326GmKxieIJVW4DRgOEj6g9M/1zWck212cNjPv+n+fWrvipZY2LBvvbTgDkdazdyt95skHBwOleHiNa8rno0/gRPbNMbpI2/hPIHr/APrzX1T+y9os0fhpb+CPMnnBcP0Iycn1xyfb2r5c0e0nvdXht4UyXlXr2z7+tfaX7PugXeheHxaX0WIggkikAyTyeD6dM49zXzmfVVDC27n1PDNF1MZzPZHdPI1oA7TbSfvbjwBkAdfTB/GtFfEGm6Dpb6tqd9HBbQggGZ9uWAHAPYAYye3OK4/x9400/wAOWstzfSFEUlyxTC5A7Z6k9B9fxr548Z/GDxV8TtRNraNP5CbkhtIFd40TGMvt7kk5PXpxivm8HltTFq70Xc+qx+bU8E+Vavsdv+0J+07B4rc+H/CMFw1tCGiO1TlkOMvgHHzcAD0/TwnVfiBrJmJhv5UKAIArdPpjpgfT8a7ZPgd4svLAXEkrpBcAbp1tzyxzxjbuAx16+vAxVu6/Y/8AEl5pD6noGqWt0YgGkP2gbSvbJJBUc9wDX1WFp4LCwUInxmMqZhjKjnJO5xPh74y+LfD1wi2moyJGhBCLKUIHsR0z/wDrBr2LwD+3TqenXENtqGjFYwp3mWcyKScAfKqrj8M/TsfFde+Hni7wsW0jW9IniKOQHZNwXH8SuOGHrWVGLmxnVJox98hgi4Ugc46/5x1rqnh8NXWqTOOnisZhno2j9CvAX7Tvhjx3p6LYXkDMEBkjifJAz82MEtx6ZOSegPFdn4X+LFvqdx9gFyjNE/7w7iffBI6hgdwr84vAfiPUPDmvQ3sUnlhmy0iZ5A5IPb0r3z4b/Fm5HiaOS7u90bJkSSN8zAHIAYcBh6nO7HrXgY3JaSu4H1OX8Q1nZTZ94aBfI0J8y4BWWIfuwQxHXv8AgRjtWnb3nk30NvZxyOo5yAMD0yevevD/AAD8V5WnjtpZPPjRxHGNmBkIGJBHqM889+a9q0iSSG1h1AiRPnXdkdB9O3XOOOtfI4nCyoysz7fB46FeN7mrrK/6KZXlUDG+TPbjivLvHPxPtfD0jyyXbNG7DMkZHy/7XJzgd/bPpXY+P/GbaFopk2zhBht/kkpGCeuO47Eex56V8k/GvxPrUmtSnTkVkmDP9/ILDo2fX7o98dzXRl2B9vLU5c0zJ4aGh3Wq/tB2NveNdpdcq7RSx+YQUwOD/uksMf5FcZ40/b60XwE6TWOmNqN6mX8toyI95JwvXOFGBnHO3PvXiXirxNf+cRYq6y4cSozcEYBX265xz2H1rzLxObVpxLCd+LdJJNwyNxUEr+GccH+XH1+FynDJpyR8LjM9xc01FnqvjH/goZ8Y/EGrXF9DYafZwTKR9nSJ5AeegLNkda8/1r9o74l6/O2ou8qrL/risxZnYjJOWBHPfrmuHkNxqO0eSAo+d8Lx/vD9B+FamleE/FXiu/TStH0ie4klbH7tduecZ/p656168cNhqS0ikeFLFYuq9ZNm/ovxe8SXExuINSkLgBipY5BHJIz/AJ4HXpXqnwm+NoNwz390ixu2LpTnAJ/iB4I5wOmP6eTXnwD+I+izm4NtC+V3NAXzIegxtTPPOcegJpmn+F/E1oq3EUalkBEkaSLuU5wOD97tjqRWFfD4bEQa0OrDYrFYeonrofXkGq2Ws2IubW7SQFG5j5zz6j05H4Gse4upWL4woRMkY5Ppx+f+c14V8PvjNrHgd1/tDzZICuJIXByG6MwBI9Oe3PrmvW9C8UaT4utBq+k3WFEgOEx0IIAOfc4PuBXzVfA1MNJ327n1uFzKnio22l2OR+NEBm0a8EMu4FeGIxwQNv8AX86+Z7xXiIMyAEEtg9fT+tfWXjPTEvtKcW0RbAbevqQOMfiO/r7V8reOtNuNH1Sa3ZJNmcozD7ykA/Tt+le3k1RODgfP8QUnGamZBMYtcM+WVs4IyRgcf59qbo0zQ6lC+0gE4I9M1G6gxmRWK8A4Ixj34+lSaSrJfQBRwZB1719BT0qI+XkrxZ1igKuMcemKNvIBP1xxSqDGoXGRjjJoY9NpH51755oBDkEgfSpbeCS5kEEMbOzkBVVck59qYuS3GfbPNd78CdNZdWv/ABYLCK4OlW6GOOUZUu5wPxwGrmxmJWEw0qzV7fnsjsy/ByzDGQw8Xbme/bu/uPPPH3g3xBoVjHqGraXJAjkIpcdyCR9OlcpE6xDzApwCcDH1x+tfXvxg8G6f40+FOpXy6bHbXccDXLW3mZVdo+8Pw4479a+QrhFJCIASQOM/5/ya+awePnmClOatJPWx7+cZVDKasYQlzRaum9zuf2evCk/i/wAfW9vsJWJxIyjtgg9RX3DoOjR6VoO+RD+7RicHqwH6d/wNfOn7B3hE3t/dapNFkJtVdo9+n1NfVOtWJtLaSJVCv5Qww6dew/KvlM+xHPjfZLZH1vDGFVLL3Ve7Pnj49afrPjrxXa+FtHRwiu0l48A5TptHqeDyAT9B37P4NfAuKzsViXTlhGAwiEx3P6eYpCg8j1z7VZ8H+Cb+88Qah4qvrG2kWUqsCX8Yd1QcDkjao6HoTyMmuxi1HTvDsJY2cAdUyu1UG08egxnHf2pvEyhRVKn0/MqlgY18Q61Tr+R02kaB4U8PW2LrRbRbl1RneUsWUrkcMefyxTX8a+HrKR/s0EKq5bKoAo5HOMHjJ59ea8W+Inxune6/sbRt81xnkK52gE45PpXIjT/HPiJDfX19cqnJyrmNAACTzwegPftUww9Sa5pytc6qmIw9H3Kcb2PavF2k/DzxZZGO9srfzRysqDBH0PbvyPWvJ9f+CHgUzPbrCjo/zBl/g7/lzmsHVdPGj3o0+/8AG3k3GWBiOpnKlTz/ABc1jvq3jvTJjfaJq76lDHyYZTuyoz0YfQ9fSu2jRrU17k2eXia+Eqv34L5Cav8AAO70icSaRKHt95wcZZM/w/T/ABxyM0/wvoGq2F4YzmKS2mHlk/wrgkdOc9OPY+tdt8PvixYeK7f7PcRC3uo/lkhlGGDDqD+VdDDZaPf3wnMKlkJbHY85Pf1rZ42tC8aiOX+zaE0p0Wd/8I7W98TzWGpabaMkcbJM0iQYUswHyhc5Jzg9Mgj2NfTmkRXd3ZRWhiMAKnzCQN2AeCOx5GcCvH/2efEek6JdRWEFlyxyELDaD7gcH+f0ya+ibqCK40rz5owHAXESkKCGGCQF5Ppz3z6V8vmNaM57WPq8soVKUNPmcr4pt0vtPcPKvkKgWWKRCeMdvyJ7++a+TfjjpMuheKzpWr2aixupZGtr1GOC4OCDxxwSPTgHtmvtu6k0bS9NnuvsSjMIV1E7DPfkdzXzP8evEul6xq/kS28UscZDRGRs7W9j174rTLK3s57GGZ0PbRvfU+T/ABD4Q1STVSIIzLbtGVVCg2u2FVsjv9wevQ1R039nzVNVRpvEl+kEMsm7bH94qM8Adhg9P/rAew6lq1teXRjSCMuOIwi/KuO/1rkfG3ju30hRZWzhpiQAGPAPsB/Kvoo42vJqMNz57+zMPBc9R6CeHPgx8M4HS2bTx8uFZ5H++PTHT+vFereEtM+HvhCzK6JplpbNgKbhQA5A9COf614Ja2XirWN11e6jLAjc7Q23/wDVWlZ+G9Sku10y31+5W6Jykf20knp2J68jjvmsasKtT4ps6aDw1L4aa+dj6M0nUvBywGH+z7TLDJkfBdiR94HHUVR174eeAdfWRP7At5JpI1AndAc9znkZz0PQdMD18C1+w+LPg6Tz21WZ1RQzLIokXGCeo5xj3q94G/aP1GK7j0jxBG9vMTtRg2UfHoT169Kx9hiIx5oSudMa+CqS5Zxsb/i34A6FM88MVg7wiXKMY2+VmJzyCBwe+CPrxXAaD4TvfhN8SW0JJJFstRAjljxlQ/8ACw4GOg4xyCfSvaoPGsfiMRjznyOcrKeh9eeea5H4g6NJPaFbOHy5IJFlhkMwfaw+b+Jtx5AHA7VpSxFSScJvRmGJwdKDVSno0PeFpEWCSMyBgQcN14zzx0r51/aL8MSaJfwSoMLI7lUIA25bdjjrySfbpX0x4dtLi6/0mW5jk82LI2RFArbsEbT39++K8k/a38OKNIOoRgnYyqrEcjkj+Z/lTy2p7PGqPcyzekquXOXY+bNxKkM3G0EZ7Y4rb+HfhXU/GXiq10jTYSXJLsxHCqB1P8vqaxpoXY4AOTjaAOvPSvpH9nvwTb/Djwl/wkV9B5ur6mm4RsOIYweEPcdNx/AcYr6TF4mWFpc0Pi6Hy2U5eswxapz+Fav07erOE8afDHxN4KiW61O0byHbHmqvAPoa5wgkZHHqAa9o1jVdd8bf2x4e8RX7yFtPkmt4cDYhXlcAdOQK8ZwOTx7cV62UY2rjKL9rbmjvbzObP8spZdiV7G/JJaX3VtxI8k4z+FetfBJG074Wa/rjIQsurWkIYjqVV2Iz/wACFeTLhvU/hXqPw2uC3wN1+2iYb7XV4LhlHXBQjP0+Woz+/wDZr9Y/mjfhLl/tuDfRS/8ASWe1WvhPUfGVlc6DaXBSWTTZVLKf7yEY/WviXxDpN5o3iO90y/QJPbXUsTpnBVwxBBxiv0L+BLR6is2tQ2geO4hhRNvHBQE/zB/DjPSvin9prwzJ4V+PXiW1mlllSXUPPSSYAE+YNzfkSy/hXyGS128VVpP+u/5n2HGGFX1ShiF6P57fkfRP7BOlQWHglp325nuGKuFOSB9eg5/wr3zxIkc2kyNbANIBku/0wM+2TXiv7IMLWvwvsAmwKSZCc8k5H1yOtezxzIZYrSWQq8+/adnOQMn+nvyK+bzOV8xnLzPayimo5RTj5HLQ6cmkadJqbAq7pl1JDYJwTtI7V558QvEF/cI0FpMELA/P2Hvk/hXsWs6Mw0lvNgcSMucY+77HP5V4/wCPfA+vazuighIRjyQMAgn/ADwK2wlWEp3kycRTqU6Voo8i174g+HPAEhQQNf6lIeI0GcvnuR3rY8NfB79pb9oHQrnXNTku9M0Wygee2sbYlSx27unUZ28n2qtL8LH8L35vdO0ISzq/mpLOMsNvK/N06kDA+vtXtnwd/a98WfDeyfS9Z+F/9pQeUIv3E7DGQRnBypOD+RFfTYeph1aUdX3f9aHyOMo4yacW7Lt/mz4x8QfDFdM+Edt8Vj8Q9Mlu5/EtzpMvhVLk/wBoWyRQwyrduhPMMhlaNSB96FwcZGbvhLTbzRfBGg+MvCnxTjk1zVvEN5p914VWF/NsoYorRobpmJw6TNPMgXAK/ZWOTuAHf/G74V6L438VT+Kfh94c1DSjf3LST2N2nmRoxOco6gZyd3GMccE54y/AfgLUvhjrI8S3ljaXN7bMRAt4cRxP/e2g5Y85HNeq8Rh2rNpnixweKUk4pjNSHiTT/FcR1K0S21GNwtw8Jwsw7HjAz+XX1r13wct9JbR30sZVlOJQQflPevNfsPjXxhrsmqNHazu0hLr5Z2rzjoTnvXq3hKXVrWy/smeFRJKQZpCcluOpPf6/414mOlC2h9LlsKiep6f8O9Qm07VIGVSxPzKw7e/1r6Z0LxXDcaHbtPvZlGWYcE18+/DPw/8A2vdx3EQJWNdpYLxnPYY617FH4dmsbNEUPu8pSTnAxnH418JmFSMqtkfpGVYaao8zQvxB8XwjRpLW3tXj81SWJJBOf068180fEG5uZjNOjAk/KMnPf3r6C8W6U0+kF3L/AC54cY7evevA/H9rc23npECrLLvG4/lzXflk03ZnnZxQcdUjyHV9X1zRrqeaRMgZyeuPf0rI8J36a7r8NjY6RJq+t38yw6fZheEZjgA/n7V33iPV9S1bR5LdNIimkcjzvMwuQOoLcY4B7+uK4W28Y6/4X8Zwa9oGm2em/ZZf9HtknZ1ijDFlRWbJByzZJJJLdAev1mG5JLU+KxSqbJnd/Hf9jr42+E7vxjo3xH/aC8G+FX8N+DbzxBa28l68MOvNbzQQtp1m8io0l0wmZ1TblhCwx3Hy78OPDHh/xvY+L9R8Y/Fz+wLvQ/DL6jodvdWrTf25eC5t4vsKsHHlMYpZpg5DD/R9uPm3L9iftJftM+Pv2wPhbpvgH4weANN1C+0mzhh0TXbW/cXNskaBFUtKzbk2gDbnAAAGMV8xaV+zv4kN75mqWt01orqoaxgErtlgMDJAHByOv0649mjiMLCKSsfNV8NjXK803/X4Fb4eaP8AGk+DZPFnh/VLySw+1+S0UhZo5SMcc9PvVfsvGGleJlNr4is1tbpZMSLjgn2z0r2pvifrug/CqL4Y/Cz4NiysLPi5u76TzJS5blm4ABLYyPUivLLHwpNrc8UuseHonKudyquJDySRuHp+lc1erQbbf3o68JRxMY2/A6/4fapqGnCOOK9aaMgBTu5x7/5HSvVNJlNxYPLdNLiToqjHORgZAz2FedeFPAl5aXAXSLGaO2PIR1y3GM4IIz3HPNeq+H9OFrEqiNyQo25PGP8APp6189jJwUrpn1WDhUcOWQ3SoItNVPtEcjMWIMhAORxycH29K8r/AGrEd/BFy+Dt80Phl5Xjp75z/npXsF00xfy/JI3A4Qry3T2xn3z6V4V+2BqFza6HFaLCpS4Vt7g4GVK5+vU/n7VGAvPGwt3DMkoZdUv2Pn74c6FbeJPHNjYXk0cMJn3z+acLsX5iDz3A/wAM19ieMvBDeF/DlhPdQbZldPtEirtyCOOnbpxkjtXyN8FYpJ/irotqsPn+bfqpiyOc9BnIx25yMeo6191fGC8j8SeEornT3do0i8zG0AFA2VJ5J+6o7nucmvZzmco1aauefwlThKnUk1qjxPZD/wALL1IwRlVi0TcVbHTaxOenXFeHvh3LDjPbFez6NcG41Txn4rWQtFb6c0Ksx43LHjGf97j8K8ZK4JI5z3r3OHY29q/8P5Hj8YVFKVFf4n97QRqOdo+lelfs8XUOoXWteCLhVKanpjsnb54+R+havNVdiBxXWfBHVU0n4paRczjEclz5L9hhwV/rXrZpR9tl1SPk381qvyPAyTEPC5tRqdOZJ+j0f4M+tPgqJ/AfwQ0uXUp2+0TBsNu+8Nx2+/C4H4V8e/tZakmrfGa/vpJwzOQZCOmRwAPbAHI9a+nPiD4ju9K+HOjiIfu7WWWFuDlSH/wxXy7+0VNZaxr1prsMu57lCsjBMbSuBggjrxn8a+ByWH+0yqPd3/M/SuLZ3y6FNbRt+Vj6R/Y/1UXPwztoAw/dDCjHfr6cAV7v4eaCRRNIVXaNx3N0GOc+vT+vrXy9+xfre/wYulJIC8UzZGOMZB59e1fR3h6+eOdyv8DFQzDPTrx3Hv6mvCzek44yp6noZHV9pl9JeR093p66kwBUFABgZ5YZ747f1rN13wRcTSGURpGiA5YLuGOvX6YrqfCNql7Isly4MT4LMg68evoePzFdd/wj9vd2Txyxq21QMMf4hzkk9+Rn6V4PtXTdmz6H6u5bI8DvvA6eb+/0h5NxOCFz09fT2qXRPB2g6TqcV5qXhWCURyF/LnhBXPv8w6HH5V7pL4d0e5kCCKMHncVAw2emfrz0x+lYOs+HfD43Lc24Zhna5XLL+Qz7D+td+Hxhy1sBzrVHgvxfm0Gdza6PYuITGRDFEuNo69SAV7n7xHPFeMa94R1LUpCTa+QjckyZLkfjX1f4j8BTXhK6TbRhATh3jwOh5I9cEmsWy+DegRyjU9WcXODxEigIMdenvXq08zo0o33PJq5TVqPlWiPBPAPwf8R6rcrDpls8cI+Z5JEwBjP4mvZPC3wmi00RQNmecgb3fkjHFdvb26wxCw0PRlkUHpEvy8dOT6Vv6Xox0i3Go38OHbGwdcf59a83GZrVrO23kepl+T0aDva77kvw/wDDFvoCQxbgEBzJwBk56Y/Su48Q3H/EsRoNwIUBongOT1z/ADrm9CupL6+iFwoijj5UKBlj7eg/wrpdZuzbkJdMruqB9wfgjH3s14FSTlVTe59bhIp02ktjz7xcviW51SCCNIzp5ibzXLYdSPbOMVxnjPwU15aS3CRDIU43DORn9f8A61eh+MtWAiicQ7ndcEkD5R16/iDWVLPbXUCwum3I53e9enh6jik0eTjaUJTcXqfPniD4bXbK82kzlZTyUI44/wA/rXl/ijwDcG6KzWzwy7zlGGMD6DrX094n0qfTJ3nt4d6j04Gfrj3rE1bw74c8T22y6tVVgT82wbh9f8mvocLmEoLXVHyOLy2M5XWjPDvCOgarEqwSShlXGMn5fxJ6cV614BQaD5d3qHh0XAiKmMujOrNnjKhuACM9KS1+FVzbzq9hKrxr91cYJ5zj/OK7Xwxos9lJ5lxHLESh3hhuIGOf55/Ota2Kpz2ZnRwsoK0kcp4vtdP8RNJNa6AsBnZjJHGdoYsQxwNi4+Yev6jnF0L4W3CuWm05IgWwF253AjGa+hdO0fQrrT1uTOu4DBCoTxzjgd89/fn1rRtvC2mSTj92u6RRsZsjbz6A/h7CvPnjXFWO2OA5ndI8W8KeANRsSxexZNhAiCgbpAccfhknj0q1d6WLWb7KoVhyVbnGPc/TmvX7/wAHxWLRXrqAwhdUmUbTk8Hjjtj6GvL/ABYzw6hthtmYIrEcffwOQO2fauRVvayvc6JYb2S2Od1JNkSS+Wu6IFXB5AP8RAHvXzv+1lFHNpqqshLhWbbgcKSPw6gfj9K9x8R37zXstpCp2FVAy/bJrwb9rG+tYtHXL7p3XY2DyAPX6cj8a93KYNYqJ8/nU19RmmeX/s86dDJ41W+uplUW6lmZse3PTg+n4jvX1r4f1+z8T+CtYsQoZ7LT3mSbcDhQoBHuMV8jfCmWXTn/ALSWdgzoyElRhxn8z+PtX0J8PLubRfhnr2pOSFk01raHLclm4A/SvVzaKlO/oc/DLcMK1buzhL+ZvDX7Pkrlm+0azqCoSTgkDLt9R2/GvKsE9/fGK9I+PM8elWWgeDYGwLWw8+YD+8/TP4CvN2YDBPPvX1uR0uTAqfWTb/RfkfFcTV3VzRw6QSj+r/FiIc5zzxxirOl30mm6jBfwPtkgmV0IOOQc5qqp49++TT8jAA459K9hpNWZ8/FuMro+v7WxsviV4YuvDUchc6larqOmbAQGYoNyfU8fjXy78ZPCuuaDeTeH9ZsZY2gJ271ICcjJH4D9K9x+AWr32v8Aw4sb3Tp2F7oF2UDd9h5A+mCR+Fej/G3wRH8SPgxqviGOyi/tE2zMLhYvm8tf9Y3A7JvO3/Dn8qVWWVZlKm9VzW9Oz+4/Z8RShnWSRqr4nG6+67X33Pn79iXVDBq13pjsA/O3cD06N/7LX1NoE5l1F4nC4JCZz94n19sj0r48/ZhW58OfFybRtS/dyRM0csTKcE/dyM8j5iPwNfXvg1vtOvyJG4BMgKqPbI9eep9qzzyCWJcu6ucnDVSTwkYPo2j2Xwwgitvs7vuRhhjuIwD1P4YH4mu+0K1s7iER3QYbuMuQM89sfhXC+F7WN4vPkJJQ9FGQOdv0rs9IjkudiyHyxkhN2M47cnv+dfC4ix+l4WPuq5b1PQrHPk2qlCsRYqVDMoHbqSO/5ewrmbzRk3NMtuxb5jh4zwwJBALf09TXay2N4sKzMyzNI/3VG4DA6dB8vfk/4VBdaCtlO2o3moYVtqwwsABE2R3HX159cVz05TWiZvKkpO5wGl6ZqmoXz2vllYgn+sVOBzz17fyq8vgnRtJs3bULhIVIJO8Dp37cVq+M9d0fwrA+qJOymKM7VMgCnkjPfPQCvl340ftF6x4g1pdN028lQSlkzEcnn6D/ADzXr4XA18W+yPKxmMw+Ejrqz2bxR8TPC3hBha+HDFcTbtsknQHPp/KqVr4hufFuXd8nGCFzye1eYfCzwRqfi6YyXRYwo4XcXGT0/Lr19a9h0fwfDpAZoEACkKoJ5Pb1p4ujh8PLkjujPBVMViYe0lpF7Gz4Z0eKzkSSSVuDht38v/r1qalpsEjtfvekHZtyzZAXt0x/kU7SLJ3AlMeWQkEAnrweavaxaTXNriOBQAgDt0UDH/6q86Eeapue9QvGNjivFtvBJCP9LUOwIGTkgDjnFcpeWc1nbeaEPB3EA9K3PEvgHWLm+XXYr2Xy1JAQOwTHfPbt+HNVrqBIkkikzggAhgQcjNemoOmlZnn4uCc2c3N4x0+2QW+poXjYbSG5K9qut4Q8O6xbDUfD1ysnmLuMadVHHJGeOv6VzvijwRd38b31o2xhggg8D/JxXKprniPQ4XFmSr2zfOR1K4OB19fzrvo0IVV7jszwMRVqUJLnWh6jp3he6tppJJi7bFyCOTj0/wA88/hW/pWlNMTaQhY22jc3lBscn9K898A/FT+3iunayFPmDltx3Mc9a9o8FaQ8iRzx3IlQgiMjJBHQZz1J45965MTCrS3O7BulXWhR03QJLULdwq7KwyDET8o6eo59K27aJLdTO8TMqx8x8Atgfjz0rVt7aK0lZnREP908D0Pb3PHfNU9UnjeUhrQq/JQs2cnuevHTv0rznOc3qeoqFOC90z/FE9oun4eIAOCu0nlRtzyR06f5615d4pS3MMo3mTYCAS2So6Zx1z+fWu68R380Z+zSRmSFm5kXnyhjuB1HauG8RlbmMlZ90bqQ5PQnpjNduHVkjz8Uo9DyPxO8tvd5d8fMMMvHOe+OvQfhXzf+1bfzajrdvotpEZC6ZUoeuWwOPft9K+h/iArRapGIpCYwThh2xkjn/PSvNtM+FFz8V/i7BcxjFtpEBuLsoPvHKiND/PPoDj1r63LZwoP2stkmfA5tSqYq2HhvJpHJfDz9nzx3cXNtpN3oclnDbxgzXE/AfqSQT2zmvUdVh0qD7J8O9Bk32loRc6jORwcdv8+lehfExNR8O+D4RDGWm2iNvKPBJAwOPxH0ryDx3I3w9+Gl/qF3IPt+pr5YYjn5gQfpwT+VKlUrY+vFPduyX6nqypUMrwUnFWUFdv06fM8Z+JXiU+K/Gl/rCkeW0pWEY6IvA/l+tYJIAwKexyCzHJ71GxyMkd6/UaVKNGlGEdkrH4tWrTxFaVWe8m394IepcdevNLnLYAxTM8Ybv2zTxz0xxWiM3seqfsq+OYfDnjj/AIRvUXSOz1XEbbuAJOdv55I/KvtrwjpOnxaemkCfKxKXjZf7zNkfl/8AWr81beV4HWaMlWUggjtX2T+zD+0no/i/Q4NF127VdTt0Ec6St/rAAAHGeue/v9RXwHF+UVJtYuir9Jfo/wBD9M4Gzmjb6jiHa2sb+e6/X7znvjx+z5ovgH4l6d8XfDP+j29zcm2vrVWwvmsGKv04U424HA4xjivQPhffGfWEuZjkyplSDkYzjrj0NX/2hfFeha58LtQ0yHAmjEc0bEDJMbq/HIwTtwP6gkVznwfufPs4Z0ZQqoFXb0A5x9RXzMp1quATqbrT5dD6OVKhhM3kqPwytL59T6J8IQuUdfNb53GeD+H0/rXZ6DCzE29pIFf73yjpx+ecHrXA+FNSEVvCRn7pUFTgAZ5/r+Vdtod/Fbs0hlKAABn4OeR+fOK+XqU25H2lGquRWOt0TTL++htrOK5SJhIC0eBlvVc84Azg/TvVvxhPaeH9JMiXSyyiM7llQA5I6A54x+uBj3p+DdVNvdILyRXkXf5chGOewBzx+fXv2rn/AIt6rNFCfPSRxKCWZTuUHt9O3AAFXSw9pq5c8RaD1Pmj9o74n30t3Pp1rcPj5sDnCg14X4Rt7zWtZa4fPmZysr9F5616f8X9FudY1qZLeBm3Eh2K9DnoKrfDr4ftYub+eNQEzhX4wK+roOFGjofEYxVK+Is9j0/4KLFofhuOG4lClXYyEqM7s5/qK7qbxTaRKt1E8ci57noc/wD1q84hgmmthHpV5GhfOAQcH2Nec+KvFHxZt9dOjaXLYW8UbZllkYyZPXAAx9a8/wCoxxNaUr76nrf2l9Ww0IWv0Prz4X6hoWszz2EupGEufM3e+37tdnqeiWel2/lO26CRVdW3ZznnHr69u1fJHhHxh4l8ORJ/as6mdh8s1uTtb8D0OPftXph+Oltd6Whv5lEioBt3gk9q55ZbKEvdPQoZxGULS0Z6T401vwVp+lmE3MaSrHsURFgCTknPb0/yK8W1PxTZ6jqrQRPnL/J83b14/CuJ+J3xUu9ausWEsj5J2xoM5/GvNtS+K/xD8H33264+GVzNa7sm4W6Ut9duP616NHLm4+Z5eLzhe002PoSSW0WA+a67SApweMd8fpXkvxKvZ7TxRJb6chZTBudVONxBPer3hX4j3fxBhiu9KtLjceSkkWNhx0Paui1DwWb6DM0IkkOQxU8sfpyRjPr2opUVhq15EYnFfXMNaB41oWrXMfilIVDK3nA7dvSvtb4H3cL+HIVuGJxHgDZna3rx6V85aV8Frmy1yLUTGGHmArnnoelfRXw8jh0PTYnYhEAGDI2M+nXpXPmNSE4qxtk8Z0pe8emDw9ZX2nLLLcfOGA3bDtlI5x1PofyA54rivE1glk8m5hIEUl/nBz0+UYznnjPbIruNK16zksDHcTxgDuzcL8pPY4HJ7Vx/xO8RWBngs4rGRg7OskqKCF4yFJ9T/hzXkwij3KtVo4fX7hbtJLaUDLAF0DAgDHbHfn+dcNrZt7JGjWMKWj+ZgMZOew/Cuq1yeO2gSP7SrOq7WlbHU9/z+nWuJ8Y3gaBpCg+4Q2ccgHkketdVKF5aHn4mr7rPJviXcCOXcFBQcgnjms/9mU3EMfiHxdcII0e8EDyAn93HEgY5PcfPnHr9cUz4wX8kVhLtA3MRjJwAfr2Ga6D9mbxDpPhX4YW8GpXkTTXck1zMUX5WLPx7n5QvP5cYr31HlwT03sv1PlaS9rm6V7WTf6HXeK5BcWr/AGuLCfdBb2yQQPp/Ovkb9ob4hL4o8TnQtPfNtYOVzu4dxwfyr3L9oX9oHR/D+lTWulyxvdTKRbxB+pP8R9AK+Sp55bq5kuZ2LPIxZm9Sa+k4XyxqTxVSNkvh/wAzweNc3jyLBUpXb1lb8F+owj+LHem+mRnnrTjgnA/z+VJkE7toxivtz82uM746dv8A69OU4APQU0FfSkHynI6duaQyZQCuCuM9zUlpfXmn3C3VldSQyxnKSRsQVPqCKhXj/wCtQzdSPzoaTVmCbTujcvviV461qw/s7UvE11NCQQVZuCPQ45NfTP7M+uJqPhy0G9mzCmQ4Iz8oB+vPevkoHcPx7V79+yN4gKadcWkkx320wEa8nKnLE9PavluJcHSWA5qcUrPou59Xw1jqzzLlqSbuurvsfW3h3VRb2y72P3iCB7/5/Sux07WJpXCll27VIJfJ3fU8GvLND1ZlhKxurLIMqBzk9+O1dbouqS/aEbzdsZwE+fOeuK/L50lzXP17D4lctj2HQr+NZBctGkU0alFCYJxgdefYfl+FZ3jaU38CTCU4KkFWGcDnpnpzWfpOsWjFDuIYrhApzknkj36H86xvip4+svC2gS316+1Y1zkt1I4wO/Jx781nCDlOyRvKqowcnsjh/F+l2CM90gTy0bkEZLH0x3/yKoq1lFp8i3HkKIxhnhQnHAOG+XGef17Vm6Bqer+J5vtOtwSRu+ZY7RnChBgbRn1HXpwTXWeD/Dv222a7kskVpgSQXYgk8A5GOSOTx6167jGhTtLc+Z9vPF4n90tDlLSDXrzV3SBIzalQyMnVVxxnI46DrjvWZ4h0e7kgkvINPjdEnBmQZBUsO4555/HNexN4btreRfMMXmIwBd0ABI/+tWdaL4QuLy40m4v0ikmlwxQDIIOQMjsKwWMjGV0tjvWWYmpDfU8lg8KeIEjR7vTZ4VlbbAJAQMdj06/5FZHiHw7qkdwTBdnd/dzxXvfiOLUbD7OsE0U1qBhSuFfGT6/lxWM154KsPMhu2VQ+TtkiBIOeo711wxnOrxRlLLq9H3aib8zyez8L3Yjj+1ahEhwMLGCMH3J7U7VNF13VYFtJMY5VS+Qo+mevpntXpqQaJNMlxpAEmRhmA2jGfQjH41ryeHWvLH7UbeIFTiJlXnGOAfbk0SxcYvUhYHFzj7isjzXwxY3Hha3XT7WxwYnzIsvyEHHHIB4OMZrtNL1yeS3huWssgnE0kQyQfbIwR9ccVpz2dkxbSbnTFAe3PmPHyx47E+n5itjUtB09NAjjsmxCEXcUzkAdOmST061jKvCTV0EcNiaSeug7Qbjw7qUYQRgkHaCI9oB9fofUcc10Vhpei6xD/ZF8sVxCxCmJ2xkggj6HOMV4l4ovJ9D1CW7s7iSPyiWwEGXA5PIznPAPetrwf8R9PilkN5IskrbH3hh8meh5PYcnIGKmthJThzwLwmaRo1OStoz6AZ7ewtj5VomwYURyHOFP0HtXFeLNat7Y3GUikaQFIWm/gbGAeOSRnIycZAzmlsvFMevaQtwbh8RYJRX6N0zXL65qxk8yGOUADlWGCTxj3rzYQadme5OopRumYGuX0CMFVmBIBYt647CuI8V6sv2UxMpYkkHDf19q2fEeuBSbZJMbQeSQcj8a4HxFqKyMfmAIU53DAzzz/OvSo0rvU8nE17I8u+NmtfZtPleSRW2q7yRseCP7vH5ZxXi2n/EzxrplglhZ63JHHGgVF2DKjGMA4ru/j3rEw006c8bAySoA2cDGcn69vwzXlAPOPyFfomQYKjPCOVSKeulz8sz7H4iGNtSm46a2dh99f32p3LXmo3ck8rnLSTOWJ/E1AckcH2pxYrgkZz14psnKggDOK+nSUVZHzDbk7vdiOc8FuvqaTgAk8nGOKUsGwWX/AOtTTkgY5pXBDQSPlBJ9KMAZYcc9KQggHB/+tTsHHDfpSGKM7s5z7gUAk9/z7Ug3MxGPzFKOTx0NMQ5XwcFa9J/Zi1lLHx2+nM3F1bnBD4I2nJx74/l+XmbewrY8D+Im8KeL9P11ZMLbXKmQDuh4bt6E1xZjQeJwNSmt2vxOzL66w2Np1HsmfbOh3c9u6fOSWUkZONpGBjoPbt2Ndr4SuUYxzzkffDLxjBz0PPt+Ned+GLqDVbUMIyVl2kfMCATj69cfqfWum0bUobW8W3uHUCaQGNH6YXn17cV+R1qbbsfsOGrcup6/pls8t5HFCpdVYktuOAD09fY/jXnfx9udSk8Q6VYTgNC1wZJYy3dVyBz1wcH8K9H+Hl9aXksbR7Nsu394XO3gD09j61U+Pfgxb2zt9d06JZfLJkikRsk8Y4HOThs/j3riw0vZ4lXPTxKdXBtRPBNW+L+n2vieaLUAUt7MiJHzt3cDjP5DNdDD+0Jbpa7NHuBsOAFzjjHr/h6Vxlj4JTXIJ9P1W2V2kkJO9CDksT0PI/pXP3nwn1fwvd+ZpN6s0fOLSZSrAezHr7dq9x0sLUfLJ6/geLhZ4qk+emr/AJnr9p8StT1W3kma5jEZxvVfp7+1QpHHe3JkhOJI23O69249PrXi114q8XeGWeH/AIR66Zdp3BHBDeo4/wA81m+D/wBobxDPrx0W/wBGm05EZQt3fSFUbkc5CnPT8RW0MvTXuWPTnm3JZ1L/AHM+hZ/EniK2kEMcxZUQjDjOF6d+lY2tfEm/jiEDQwkN8uSg3L7g1q+A/APxX+NPxQHwj+CmpeFvGOoT20stpPo2pyxxXiR23nytGtzDFL+7QMCHRSWU7dwwTxut/Dn46aZqNzY6l8OZ4ntZ2imSRog6ODhgcsGXBz1xj2rP6ilLVGkc9oSXL7VfPf7mb1p491e6QRPnhfxxzj+fXNadj4718xmA3xyVKZaTkfjXOeHfhb8c7qRY4PheYg/3Zbi+i2AZ65UsRXd+Af2Sfjl8WfHN/wCBE8Z+DdAs9Ot3ludd1LWCtrvULiJN6K0jM7ovCnjc3KqTSeEp9UjKpn1CH/LxP0/4BhSfE+8hmKmdHdHY43Z9D6e9bln+0DY28yrqVkURpBnI4XAxxjpnvXz58QPGeqfCv4hXfgfxPAk1zaq7x3VswxImWRXC9RkKfX8cVl6x47vtUsY73TbO5dZV3Ltj5x34zxz/AErZ5bF203MFnEK0G4tM+gvHPjTwj4lsfIufKVX52c5c9s+nPP5VgaNqVsdRlGk3S5HB2yHOMdMc8ZPp69K8q8IeH/G/iVy+pSfZYIz8rmQOzcdeOMfn1ruPCvhyXT/F1naQxyyRuR9oY5Ik9j0HHcVDpwopxTPKxDlXkqnLY9l+EPiF9Rm1WzSRpUiABO7rkYI9R059an1S+S3eRyoHAyB3J6fhW78OPCsOiaPqGvltq3BJhB/iA46/ga8+8ZyfaNRuNQRSs0ieWxL4BXtj3689q8S0amIdtj341J08JFy3MDxVcGaVjHIuRnBHU+tcJ4huHkSQtjLLhVX3ycflXQX95IEmWdPLLcqW7ADg5PcY964zxfdfY7KYRSYEaFVLnnJ78+pAI5r1KNPVI8evWvFs8M+N2tTX2tw2is3lqhkGW4Y5xnHbow/CuGyGOCfpWt451X+2fFd5dlgVR/Kjx2C8Y/PNY/IPDV+oZbS9hgoR8vzPynMKvtsbOXmIcp94/iOKRh0yTx/ntQzHdnJ/GkLDqD+ldpxB0yevvSnB6cn3pm/AyOccUjE9sHFK4wLEduKdu7rimLnuMUo45Ax/SlcLDtxA7fWnEtt4bOO1RDaBg84604EYxTTAchU8nv8AjS7s/KB0NMzg5DdP1pwC7fbH1piPp79m/wAaprfgeCzmunM1swhkVcszFfUkjqNvP0FeryRPFMdYmnklVDhIFB4B5B49Pzr5C+A3i6fw143WzMgWC+XZIx6KV5DfzH419Y6T4ijutPdo3G7yA0fmAcg8gcnOOncdK/NM7wTwuNly7PX7z9KyPGrFYKKk9Vp9x6P4C8QyW80FoIWQJMF2RHDMAeecjIxk/wCNeu6811rnhnbGsW14h5Sl8g9z/Kvnvw/NLDfLLCfKZFKwkKSox32gjOCK9S8H6vbXIge+vA5tpCdobj5gRwBjsePTP418xiaaTuj6vCVHbXqcovhMxX7RZjDhmJwOAevcZqDWvD1rqUA0u4URsF/dXAA4Poa76S0htrlrkQD5mbBVQpHcn8ax9TtLC8ncRRrnYWVWyMe2e1R7ZuVzsp0eWPunk+s+E4QW03UI9rhSNoz8y88j25/KoU+Hmg6nbfZW0uF3aMqjuoO0diD78/nXbarpokRYtUTaBkxnGCvP6isdLHUfD12L5bgTJztbZk49D68V3Qqc63O7D14RlaS1PMtb+Dk+h6n9tsleIiPfHLaMUbGPbBHUf/qqLW5PifqugnS7D4ma9bwFGjVork5G4YILfTPXNezzazb3VgpurVuPvO8YHY9D2/8ArVky6noMcgkmso5VjYFoFHyv6njn27HFdcK2JhblkdlTB5Ti4P21JM8o0/4n/tYeGrI6VYfHbU3gCgKJNMspHx7s8BJOO55rA0DVPj5perX3iW2+KniOaXUp/MvHlvmEUkgUDPlIFTOAB93gACvZTJok33LReDzlPoeD2+o5x3qymo+GtHb7WbWHzoomVY40yCcEbj6sQSOfb8OqOLxDve33Hk1MgyOiuanC782zxyT4XaxrerN4m8byXF1fTkLLPdf6zA5AO7kD5voBmtTRvCkK3SC3tyNvyhXAI+o9v8mus1Ga+8QX8rmFo1bOE3ZBOCBn14Jq14Z8PvZXuS6yTMMnCk7T3/nWc680tWcdSOHpWUIpeSNrwt4Y8uzFjHDHuwu7aAdq+mO5966Ox8ESy+QiQZdnA+bPHI5OMfzqXw5bpaqZJI9pY4O4ZLen9OK6DTb5LXUVknnOcAbWGMYB/Dk15U6kruxn7NStzHUeJ9TtfCngA6dabv3UASEA4DADGMmvB/Fmp/bmKbQkyJuVVI+XgjI7dDjmu1+I/jTfm0gB2Rtkllxz0/ma8n1DVZTcyOWWRy2ASvCitMHRfxPcwxtayUEQXSRRzLdaneO7iPDMB+fHQZ4/L8a85+MPiZrXRpE3MWPXnHPbOOw7/wD667LxFr32W2aJ32FRhDgnnufT/J5rxrxNq9z4g142oICRsCWZc8twMZGP59fpXtYWlefM9kfP42ty0+SO70PJGeUSsZSN+87j0y2eT+dBfHGP1p9+whvZ0HaZh6fxGocjnn8a/SaelNeh+azXvv1HsB/e4+lMPQjP0zRkFTg8etMZwTz+dU2TYcWGOB1Gc0nJ+YHP401XBPDcCkPHvz3pXCwZI53ZHpSlu2D7kCkIAG786azHA598GgdiQFv4ePxpVOG3DtTQcndkHNLkHkYpiHd8Z70u4BskYx0piEHG4fWlDnJHH50XEbvw9NtJ4z0+1uhuinmMEgz/AAuCh/8AQutfRPw38UXUU40nV7iNbmxYxvI6FfNX146DBB/Prg18z+G7xbDX7G+cf6m8if8A75cGvfPGcH2GaPxFASwwVuflLZUHjkZxj88E18nxBBSxME/tL8V/w59VkM3DDTlH7L/B/wDDHtOl620tuhuWXr8pU53DP+H+TXY+CdcjimzHOpy2Dn0yM/jXifw/8Yi9tB5soDKoJLyZ+X1Pp09u3Fd9oXiW3imQhyQTxtGeePSvjcTh2m4n22CxUXFPoe32t5Dep5QLkp1YHIUjPGcc9MfSqc9m0F0skcVw8W7MrBupPvmuZ8L+KrSdpLaEMGBIkBfGeM4689f510y38twI2jgaRZCA/wA4BHBwfx4GP6V484OErH0FKtGUbobqq2t3a/ZZ4SiLgbiB84x6/pXKaqdU0uXyoLfdbMc9cgY/z9ea6q+huUkCMjxs2DtTqCOpyRj1pZDpsrGZ96hVAmUr93jIY4/zz9KulPkQ6sVVVmcFf6lo18phubd7ZureW5CnnnPA44rNj8P6BIPtEM6sCSSxk2g59j/Kum1dNImuHlg08Nv+XcVyD+ffNcxrOl6eZSqIIyDyQcE/Q/5716NKpFrscM3iKXwyKd/oOlBgFuxE2TySKdb2mjWwEiXckrHI3J3z71b0TTdIjdp75fm3fIrE8H8avXV3o2k3EQi09isnIfYPvZ9B3q5VNbLUmMsRUfvSsZ0iXGpMbXTLNIo1ZcsDya3NL0SHT4SilnlwNxI6885/GrUVjFFB5tsuxpMfLnocD+n9atx6XdwxLMRw/Ubf1z29a5p1GzRU1DViKktvxayBNoO0bgeoGMcetUtR1byFAN3iXb9xOmfT8PpUV+VtojbRXDhSDtkzkgnvzmuU8Y+IhbzZgi8zDHOMcfpTpw5mY1aqijO8T+IJ3lMkzEsBtA38DniuXl1sLvZnUbAQV7Hn39h+tZ+s+IJZLkwW3AGWcluh4z9c1zWv+LljieGNi79GMi8fXoe/P+TXsUMO7WPBxOLTd7lf4ieMY2gESTb1HRkI+YdPx69PpWBoWlyWau9xMd8sm93PTPP9en4Vm2UU/iXxAVzmO3kJcMOrZHOD7YHbpXWQ2AtUCiYOoXHzAZPPXOOTXfUtShyI8ulzV6vO9jwnVAF1C4TIyJ25A/2jUAPqvJ6+lWNWIGq3SAnAuXwT/vH8KqlgAccH1FfeU/4aPh6iftH6gTxkDHPakOCck4JoDMBjIzimeYC2TVEJCliCTtJxSH5cnd0H60jNuByRgdKRmUjcenelcY4sNuD3poyTk+nWkVsvkZFKr5OW55pgh6vuGMjr1pwLenPrUe4Yzjn9aUEHuPyouIfk5GR+tLzggEVHvAHy/iMUqvnp37mgCWNyrZU8j17V9WxWMOu+HY5ZG3Rz26OFIzkHB54+nFfJ6yHGB3/Wvq74Vypq/wAMtFumlyRYxIcHsAB+fH6cY618vxMrU6U10bX32/yPqOGXzTq0+6T/AK+84UzXXgnWjp5nkWHjyJiOOg4O3njt0yD69ex03xwIEi2zEFxkFjgYHfHGOtN+IHgz+3bYy4KlFwm2PORx049R75715tbarN4euFspYpMKxVjKuTj6dh17dvpXjU1DEwT6o9So6mEqW6M978J/E6wtb0STSRByo3HzQWcdmwPT+XTPSvXfD/i2yRVuxOAHh3ou3O4DqPf/AOtXyBp3i1ra9TUoLlNoALpCnzg+pAIPUDsTj0r1Pwn8RbDVtOja7wgRSSQ3zZPYHt7/AJV52My+6TR6eBzRwvGTPqCPWl1PSpJreSBSyFQxOTu/ye1Yuk69a2t4mn6pCjM42qzPjzD7AHtzXCeF/iLp98YdCgnWJlhH70277VHoDgAEHHGe3J6UuueINFg1Vb+a0aZvLBMsA3LtJKjGTw2CenXpzxXj/U5RlZn0MMyhKmmdt4gurO0uJVfYjKfk2rwM9vrz/OucubjSppw1zCqtnO5sjaMdcDgd+ara/rsV9Zu9rFODFGrQQSAGbceFzzn8TgAenNZlnbT3MX+lXSieRNoYEo2RxnGeOhPoevFaQouESpYtVHsbQh0uW9HnSrHGeANvPp+dW7iw0i2gVUiaV1kAGADnP07ZrO07R2sYlvEvQW2eYHnG/J9cVHr95aTu19a3qxPGNjyTEIvQZxkjIAJOR+dPlcnoEq0Yxu0dLoOmQRl7m4cZPVGboPQdunrT9evLSwti8TshGchicHqT/KsxfE2j6LCIZtSRztDSPjpwOD9c/wAq4Hx58RJDdTQW8hkJQGLAIHJ5z+X+c06WHqTmc+IxlKnCyZN4p8UCFWc3ZYNITGU46fyrzjxT46WdHMFyAQMKHHftnmuf8e/Ea+vbz7BYsjSGP94q4ZUwR8uR9Sfzrj7jUGmje4a6ZfMQ4LEZOO+D75r3sPglFJs+ZxGYucmom3Nrt1CHZpJCDKcBEzkY757c1zet6pLqU/2e1Uu/mbGVRz6Nk+nT8KhvtQunH2ONP3YTOeuPb3PP86teH9LCT/apoz5jr0U8888+vOe/p1rutGmrnnc0qjt0NzwzpEdlGsajLSHe+GwT6ent37VsahbNEpXYFPBPIz09uv40aBpgiXzbn94xYljnJ+90x6D9KsX8PmSeYY0cROdpOQfu4yAR3JNefUm3M9SjBKK0PnLWWxrV38x/4+ZOox/EaqMehByKm1kldYu9xOftL8n/AHjVbceg6mv0Sm/3cT88qfxH6jy4I254HpTHIxnP40hYHkYI+tNLkjnv0NVdEDtwZSM59cHpQ3HTmmFueT27Ggkk5A68ClcYoPHvjg0KWIwf0pny/eGKXf68/jRcB+87s9fqKXcG4zg0xMs21VJJPAAq1baRfT/N5G3Pd+KYiEtgkMPwzSg56dfTNXf7HSLH2m6AJHRR0qNBp7MUjfcR6t1pcyWgFcEYznrX1B+zzAus/CjTrGS4YAluUfByszED6HGK+aglp0EPHXJr6N/ZdvY7nwDBYqvEdy6r/sncWH/oWa+d4mu8BGXaS/Jn0nC7X9oNPrF/mj0LU9LMcbjzGVDHu8s4BQ7evTjp64rzP4meCUjgN3BaAkHKDyR8y5yc9vfjFezy24mhZ5YchcbiBjPPf9Kw9d0aJvMs7hEYMMREt978fz/OvjsLiHTmj7HF4WNSDR85RO+h3sa3LMNkm2ORiCeccHp17EetbmieJLrRJ5NTsYhKrjdcQsn3gO+CQeMcD9a1fHvgsQ3P2xbUssnRyDjoce2c/mfxriJ4rvSI3M8gJV8AqOx52t/9cADNfQwlCtG58xUhUw8rHruifE+x02FGgbbbzZMbH5cE5GDhh6D3/PjstD8Zw6jei6XWIFhiBLGWR285+MFQT6AdAevWvnVWjulMdrceTMvLIAGVhjn5fyzUtr4n1XRbwmWSURqMbbV8puOOSDz6fTFYTwdOe2jN6eNqU7X1R9XxeIbDXhIbOaGK5BDzzxruDAHAIxzxzgAnHTvzK2k6fc5eGeCQAbh5rEEsTwRn8/r9a8I8M/HC2WziM2oMZsbsldwzjoO2OnFdVL8Y7V4Y50uY5JFzsJLAA454z6ZrzamBqxloe1RzGhKHvbnoln4sW01N9OtLmKR7dgjIc7U+XgZzn/Pr1pX/AI6vRcT3Ekkq4mAaWJCNwJ/i3DqCO3bB78eVX3xQ0+yIuUnj84sNoTOVBY5J9RjGPQ1zfin4vabcRNawalNIhkBWPPyhuo9yP8a2pYGTexz1szvG1z0/xJ4/kvp5lnijLsgAY4wcHueT36ev1ry3xv48vZbhTDMGd8JGjHcRhSOuTjBx61zWrfEHVb23lit2x5jAvkYUdiBjr/WsWG9a3lN5M/mzYO6Rvbv19Pb1r0aWFjT1Z49bFyq6I14b+UAGaKMFmBdST6jk5xmpPt0Ek3+kSKFVsfL0BGOP1NZ6TyXk+zJO4A8Dj1z7/T2q5p2kXN4PLeJo0UgRsRkkDuM/U5PtWkrLciEW9ixodg2o3JvnVwgwFWRSDt9T6cV2uiaY8YjKqJEVs/KvGOOnr1qt4e0KS3WOBIQ4dj8hbG4k5Jrqbeyfzo1YKQgBWLjDHnByTwBwe9efWrXZ6tChaNyay047VeZGXI4UHAUEfiD17ZqvqFq0du0kiksV5Ga1Y9nVpN+cAYyeP6fWqOrD/QGKLywI5HIH/wBeuByuz0YwSifL2u2F5FrF0RasB9okxge5qk8FypGYXA/3TWj4p8cJpPjfUtE1m0JSO8cJIBtYDOR/Oren3Wma0pbTNRJOM7G6iv0nD1IVaUXF9EfmVeMqdWSa6s59g4GQDx7UjMMYHH1710E9vcQsS0asPY8/rVdv7LZttzEBz95l/wAkVq7rcyvcxi2OM59hSEqxOPWt2LTNIu/9WkbcdUemv4Zs5OIZnTjpjOaNWgvqZVrYXeoMBbwk+pPQVrWfhIZBvJC/95U/xrZitYoI8k7EUfKo9PwqK5ukWNtjAY4HPWq5UtyeZsiFnpmlqWiRQQOMLk59M1m6n4kRQUiUKexHNQ6xqhdCMkgZ6dq52aK7u4mmt4pWYSYwASMVhOpK9kaQgt2WdQ8RSynaT0OTzVayubq4uES2DFieFUZ/Siy8O6hqE5WcrCq8uSwJA+grqba10vRbZbCwiw7/AOulJ+YjrjP6VnCEpsuUlFWHaP4Zu9QVTeS+UgPCg/Ma94/ZplsbGxutKgziC8G4MeclVOa8k0GUXW65JwvRB/dH9K9K/Z0iaCyuNS3kNfXkkmfQK3l4/wDHP1rg4kjCGV26to9XhmU3mqfRJn0BpryS4JjJ2qNwH68dadeIsxOGXA6gPyPfiqGkyXDIBHjcvG/HUY9PwrSjDmVZ5Bt+TBCKDgdjx0r84WjP0yWpynizwxBqSNHLEzxyITngA+xOOP5H3rzfxD8M/svlrslkRBgSY7cden+fxr2u5splk82SQsrDhduRjv8AqfasnUtALRB5oQ+WwTGMgfU9/TH4etehQxEqatc83E4ONRnzrrHgW4slZ7WMnzByTyR2P6DtxWPNHq9nP5pilJbvGxAxx6jr7e1e8634UgcvIbRc4IVzhjnk8+vSuZ1PwUZ5GN1FsJJAC7grD6H+detTxia1PFq4Bxfunk0lzEJWjmhDP1JU42598fyqKSW3i3iO+khBXLETN9Pz/wAK9Kvfhtb3EW+GNNwJIO3OT+P9Kyrr4T2dywDoytyCcbfw7cVvHFUzmlg66ODkhsbgH7RLI3cl5iRx7ZHPtTZJ0hjP2dNrHrsAXHb8u9d3F8HLRXa3WB3RVB3buM+men+R1q5b/CXS4JU82BQTwG39PxpvFUu9yVgq76Hm8MtzKXjgtnkQMAGycA46/rmruleHtQvmUMQnAALHk9cj1FepWnw/sbGIgW+8jsB94D36miPwv59yltDaxxJkdTuzk9f/ANWf0rJ4yL2OiOXSXxM5LT/DSWMJGwkAYWONBkenXrXSaDoDsole28rcuW8xvmfphevvnit+28LQ252lc85fcMY7dOp6j0rXh0uLztyuwJUBWAbp9Dx6flXJPEXR208JZlLSNHWFhJIMg9GY/d6DA9OPTmtSeL5nKjJyAT3/ABFTW9lMWVYz93OMEkAEg85+h9quS6eiv5clw0mQMJngY/AcY/z68Up3d2ejCnyqyM1IIzAbiQ8BvkyOo9OR/nNZ+rzEwYfG45bB/D1ra1eAomZyXPA5bOPQD9TXP6orsQ4UABePf3qL3LkklY8Y+LPw3svFwuryCNVvouY3A+8MdD6jrXiBk1Xw/ftGWaOSJiCOnNfUuowtFqhYA/PlWzXjvxy8HrbXw1u2jAEnEu0cZ9a+hy7FyUlTb06HyuaYGLi6sd+pg2PxCF7beTfREyDow71vaJpp1CAXNxdEIwyI+uK8zkjKNuUgHsQeldn8OPFLT3H9iX7DcR+5bH5g19PhaynVSqany1am4wvE6a90HTbSISQ24DdmHc++KoW5v7ScGGR5og3zROcn8M9a6C6s/Mh2MOo6npWW2nzRuApztbPHJIr1KlGLaaRxQqO2rP/Z;container=1;" parent="1" vertex="1">
          <mxGeometry x="126.5" y="220" width="130" height="130" as="geometry" />
        </mxCell>
        <mxCell id="ONlaFY43-rq6lhPOw7dl-3" value="" style="endArrow=none;html=1;rounded=1;exitX=0;exitY=0.25;exitDx=0;exitDy=0;entryX=1;entryY=0.25;entryDx=0;entryDy=0;strokeWidth=3;strokeColor=#FFFFFF;curved=0;opacity=80;" parent="1" source="ONlaFY43-rq6lhPOw7dl-2" target="ONlaFY43-rq6lhPOw7dl-2" edge="1">
          <mxGeometry width="50" height="50" relative="1" as="geometry">
            <mxPoint x="510" y="110" as="sourcePoint" />
            <mxPoint x="560" y="60" as="targetPoint" />
          </mxGeometry>
        </mxCell>
        <mxCell id="ONlaFY43-rq6lhPOw7dl-5" value="" style="endArrow=none;html=1;rounded=1;exitX=0;exitY=0.25;exitDx=0;exitDy=0;entryX=1;entryY=0.25;entryDx=0;entryDy=0;strokeWidth=3;strokeColor=#FFFFFF;curved=0;opacity=80;" parent="1" edge="1">
          <mxGeometry width="50" height="50" relative="1" as="geometry">
            <mxPoint x="320" y="-85.5" as="sourcePoint" />
            <mxPoint x="450" y="-85.5" as="targetPoint" />
          </mxGeometry>
        </mxCell>
        <mxCell id="ONlaFY43-rq6lhPOw7dl-6" value="" style="endArrow=none;html=1;rounded=1;exitX=0;exitY=0.75;exitDx=0;exitDy=0;entryX=1;entryY=0.75;entryDx=0;entryDy=0;strokeWidth=3;strokeColor=#FFFFFF;curved=0;opacity=80;" parent="1" source="ONlaFY43-rq6lhPOw7dl-2" target="ONlaFY43-rq6lhPOw7dl-2" edge="1">
          <mxGeometry width="50" height="50" relative="1" as="geometry">
            <mxPoint x="490" y="-60" as="sourcePoint" />
            <mxPoint x="620" y="-60" as="targetPoint" />
          </mxGeometry>
        </mxCell>
        <mxCell id="ONlaFY43-rq6lhPOw7dl-7" value="" style="endArrow=none;html=1;rounded=1;exitX=0.25;exitY=0;exitDx=0;exitDy=0;entryX=0.25;entryY=1;entryDx=0;entryDy=0;strokeWidth=3;strokeColor=#FFFFFF;curved=0;opacity=80;" parent="1" source="ONlaFY43-rq6lhPOw7dl-2" target="ONlaFY43-rq6lhPOw7dl-2" edge="1">
          <mxGeometry width="50" height="50" relative="1" as="geometry">
            <mxPoint x="530" y="-70" as="sourcePoint" />
            <mxPoint x="660" y="-70" as="targetPoint" />
          </mxGeometry>
        </mxCell>
        <mxCell id="ONlaFY43-rq6lhPOw7dl-8" value="" style="endArrow=none;html=1;rounded=1;exitX=0.5;exitY=0;exitDx=0;exitDy=0;entryX=0.5;entryY=1;entryDx=0;entryDy=0;strokeWidth=3;strokeColor=#FFFFFF;curved=0;opacity=80;" parent="1" source="ONlaFY43-rq6lhPOw7dl-2" target="ONlaFY43-rq6lhPOw7dl-2" edge="1">
          <mxGeometry width="50" height="50" relative="1" as="geometry">
            <mxPoint x="384.5" y="-150" as="sourcePoint" />
            <mxPoint x="384.5" y="-20" as="targetPoint" />
          </mxGeometry>
        </mxCell>
        <mxCell id="ONlaFY43-rq6lhPOw7dl-9" value="" style="endArrow=none;html=1;rounded=1;exitX=0.75;exitY=0;exitDx=0;exitDy=0;entryX=0.75;entryY=1;entryDx=0;entryDy=0;strokeWidth=3;strokeColor=#FFFFFF;curved=0;opacity=80;" parent="1" source="ONlaFY43-rq6lhPOw7dl-2" target="ONlaFY43-rq6lhPOw7dl-2" edge="1">
          <mxGeometry width="50" height="50" relative="1" as="geometry">
            <mxPoint x="500" y="-140" as="sourcePoint" />
            <mxPoint x="500" y="-10" as="targetPoint" />
          </mxGeometry>
        </mxCell>
        <mxCell id="ONlaFY43-rq6lhPOw7dl-19" value="" style="endArrow=none;html=1;rounded=1;exitX=0;exitY=0.5;exitDx=0;exitDy=0;entryX=1;entryY=0.5;entryDx=0;entryDy=0;strokeWidth=3;strokeColor=#FFFFFF;curved=0;opacity=80;" parent="1" source="ONlaFY43-rq6lhPOw7dl-2" target="ONlaFY43-rq6lhPOw7dl-2" edge="1">
          <mxGeometry width="50" height="50" relative="1" as="geometry">
            <mxPoint x="30" y="185.75" as="sourcePoint" />
            <mxPoint x="160" y="185.75" as="targetPoint" />
          </mxGeometry>
        </mxCell>
        <mxCell id="ONlaFY43-rq6lhPOw7dl-47" value="" style="group" parent="1" vertex="1" connectable="0">
          <mxGeometry x="640" y="201.82" width="157" height="167.63" as="geometry" />
        </mxCell>
        <mxCell id="G9MimPonou3kFe0NSSdk-34" value="&lt;font style=&quot;font-size: 17px;&quot;&gt;&lt;b style=&quot;&quot;&gt;DownSmaping&lt;/b&gt;&lt;/font&gt;" style="rounded=1;whiteSpace=wrap;html=1;arcSize=28;align=center;flipV=0;direction=east;labelPosition=center;verticalLabelPosition=middle;verticalAlign=middle;textDirection=vertical-rl;fillColor=#f5f5f5;fontColor=#333333;strokeColor=#666666;strokeWidth=2;" parent="ONlaFY43-rq6lhPOw7dl-47" vertex="1">
          <mxGeometry y="2.6299999999999955" width="42" height="165" as="geometry" />
        </mxCell>
        <mxCell id="G9MimPonou3kFe0NSSdk-36" value="&lt;font style=&quot;font-size: 17px;&quot;&gt;&lt;b style=&quot;&quot;&gt;AUMamba&lt;br&gt;&lt;/b&gt;&lt;/font&gt;&lt;div&gt;&lt;font style=&quot;font-size: 17px;&quot;&gt;&lt;b style=&quot;&quot;&gt;Block&lt;/b&gt;&lt;/font&gt;&lt;/div&gt;" style="rounded=1;whiteSpace=wrap;html=1;arcSize=28;align=center;flipV=0;direction=east;labelPosition=center;verticalLabelPosition=middle;verticalAlign=middle;fillColor=#f5f5f5;fontColor=#333333;strokeColor=#666666;strokeWidth=2;" parent="ONlaFY43-rq6lhPOw7dl-47" vertex="1">
          <mxGeometry x="67" width="90" height="167" as="geometry" />
        </mxCell>
        <mxCell id="G9MimPonou3kFe0NSSdk-33" value="" style="edgeStyle=orthogonalEdgeStyle;rounded=0;orthogonalLoop=1;jettySize=auto;html=1;" parent="ONlaFY43-rq6lhPOw7dl-47" source="G9MimPonou3kFe0NSSdk-34" target="G9MimPonou3kFe0NSSdk-36" edge="1">
          <mxGeometry relative="1" as="geometry" />
        </mxCell>
        <mxCell id="G9MimPonou3kFe0NSSdk-51" value="" style="rounded=0;whiteSpace=wrap;html=1;fillColor=none;dashed=1;" parent="1" vertex="1">
          <mxGeometry x="820" y="170" width="175" height="253" as="geometry" />
        </mxCell>
        <mxCell id="G9MimPonou3kFe0NSSdk-53" value="&lt;font style=&quot;font-size: 17px;&quot;&gt;&lt;b style=&quot;&quot;&gt;DownSmaping&lt;/b&gt;&lt;/font&gt;" style="rounded=1;whiteSpace=wrap;html=1;arcSize=28;align=center;flipV=0;direction=east;labelPosition=center;verticalLabelPosition=middle;verticalAlign=middle;textDirection=vertical-rl;fillColor=#f5f5f5;fontColor=#333333;strokeColor=#666666;strokeWidth=2;" parent="1" vertex="1">
          <mxGeometry x="827" y="203.13" width="42" height="165" as="geometry" />
        </mxCell>
        <mxCell id="G9MimPonou3kFe0NSSdk-54" value="&lt;b&gt;&lt;font style=&quot;font-size: 17px;&quot;&gt;AUMamba&lt;br&gt;&lt;/font&gt;&lt;/b&gt;&lt;div&gt;&lt;b&gt;&lt;font style=&quot;font-size: 17px;&quot;&gt;Block&lt;/font&gt;&lt;/b&gt;&lt;/div&gt;" style="rounded=1;whiteSpace=wrap;html=1;arcSize=28;align=center;flipV=0;direction=east;labelPosition=center;verticalLabelPosition=middle;verticalAlign=middle;fillColor=#f5f5f5;fontColor=#333333;strokeColor=#666666;strokeWidth=2;" parent="1" vertex="1">
          <mxGeometry x="897" y="203.13" width="90" height="167" as="geometry" />
        </mxCell>
        <mxCell id="G9MimPonou3kFe0NSSdk-52" value="" style="edgeStyle=orthogonalEdgeStyle;rounded=0;orthogonalLoop=1;jettySize=auto;html=1;" parent="1" source="G9MimPonou3kFe0NSSdk-53" target="G9MimPonou3kFe0NSSdk-54" edge="1">
          <mxGeometry relative="1" as="geometry" />
        </mxCell>
        <mxCell id="G9MimPonou3kFe0NSSdk-55" value="$$ ×L_{4} $$" style="text;html=1;align=center;verticalAlign=middle;resizable=0;points=[];autosize=1;strokeColor=none;fillColor=none;fontSize=15;" parent="1" vertex="1">
          <mxGeometry x="844.5" y="368.75" width="110" height="30" as="geometry" />
        </mxCell>
        <mxCell id="G9MimPonou3kFe0NSSdk-97" value="$$ prediction\ of\ AUs $$" style="text;html=1;align=center;verticalAlign=middle;resizable=0;points=[];autosize=1;strokeColor=none;fillColor=none;fontSize=18;fontStyle=1" parent="1" vertex="1">
          <mxGeometry x="936.5" y="-85.00000000000006" width="220" height="40" as="geometry" />
        </mxCell>
        <mxCell id="ONlaFY43-rq6lhPOw7dl-20" value="" style="rounded=0;whiteSpace=wrap;html=1;" parent="1" vertex="1">
          <mxGeometry x="890" y="-31.190000000000055" width="22" height="22" as="geometry" />
        </mxCell>
        <mxCell id="ONlaFY43-rq6lhPOw7dl-27" value="" style="rounded=0;whiteSpace=wrap;html=1;fillColor=#000000;" parent="1" vertex="1">
          <mxGeometry x="919.5" y="-31.190000000000055" width="22" height="22" as="geometry" />
        </mxCell>
        <mxCell id="ONlaFY43-rq6lhPOw7dl-28" value="" style="rounded=0;whiteSpace=wrap;html=1;" parent="1" vertex="1">
          <mxGeometry x="948.81" y="-31.190000000000055" width="22" height="22" as="geometry" />
        </mxCell>
        <mxCell id="ONlaFY43-rq6lhPOw7dl-29" value="" style="rounded=0;whiteSpace=wrap;html=1;" parent="1" vertex="1">
          <mxGeometry x="980" y="-31.190000000000055" width="22" height="22" as="geometry" />
        </mxCell>
        <mxCell id="ONlaFY43-rq6lhPOw7dl-32" value="" style="rounded=0;whiteSpace=wrap;html=1;" parent="1" vertex="1">
          <mxGeometry x="1070" y="-31.190000000000055" width="22" height="22" as="geometry" />
        </mxCell>
        <mxCell id="ONlaFY43-rq6lhPOw7dl-33" value="" style="rounded=0;whiteSpace=wrap;html=1;fillColor=#000000;" parent="1" vertex="1">
          <mxGeometry x="1100" y="-31.190000000000055" width="22" height="22" as="geometry" />
        </mxCell>
        <mxCell id="ONlaFY43-rq6lhPOw7dl-34" value="" style="rounded=0;whiteSpace=wrap;html=1;" parent="1" vertex="1">
          <mxGeometry x="1130" y="-31.190000000000055" width="22" height="22" as="geometry" />
        </mxCell>
        <mxCell id="ONlaFY43-rq6lhPOw7dl-35" value="" style="rounded=0;whiteSpace=wrap;html=1;" parent="1" vertex="1">
          <mxGeometry x="1160" y="-31.190000000000055" width="22" height="22" as="geometry" />
        </mxCell>
        <mxCell id="ONlaFY43-rq6lhPOw7dl-36" value="" style="endArrow=none;dashed=1;html=1;dashPattern=1 3;strokeWidth=2;rounded=0;" parent="1" edge="1">
          <mxGeometry width="50" height="50" relative="1" as="geometry">
            <mxPoint x="1060" y="-10.81000000000006" as="sourcePoint" />
            <mxPoint x="1010" y="-10.81000000000006" as="targetPoint" />
          </mxGeometry>
        </mxCell>
        <mxCell id="nuvMnK8QTBs22XvJSMSG-1" value="&lt;b&gt;Input Patches&lt;/b&gt;" style="text;html=1;align=center;verticalAlign=middle;resizable=0;points=[];autosize=1;strokeColor=none;fillColor=none;fontSize=17;" parent="1" vertex="1">
          <mxGeometry x="126.5" y="350" width="130" height="30" as="geometry" />
        </mxCell>
      </root>
    </mxGraphModel>
  </diagram>
</mxfile>
